<?xml version="1.0" standalone="no"?>
<!DOCTYPE svg PUBLIC "-//W3C//DTD SVG 20010904//EN"
 "http://www.w3.org/TR/2001/REC-SVG-20010904/DTD/svg10.dtd">
<svg version="1.0" xmlns="http://www.w3.org/2000/svg"
viewBox="0 0 596.000000 220.000000"
 preserveAspectRatio="xMidYMid meet">

<g transform="translate(0.000000,220.000000) scale(0.100000,-0.100000)"
fill="#ffffff" stroke="none">
<path d="M3416 2115 c-14 -8 -26 -11 -26 -7 -1 4 -9 -3 -20 -16 -10 -13 -17
-29 -14 -36 7 -18 -44 -119 -55 -111 -5 2 -12 -2 -15 -11 -9 -24 -7 -31 4 -14
6 9 10 10 10 3 0 -21 -12 -43 -21 -38 -8 6 -32 -68 -44 -136 -6 -33 -4 -38 27
-56 18 -11 43 -22 56 -25 24 -7 83 9 80 20 -1 4 1 21 5 37 4 17 9 39 11 50 2
11 14 48 25 83 12 35 19 67 16 72 -3 4 7 32 23 62 15 29 26 60 26 68 -1 8 -2
23 -3 32 -1 11 -6 15 -16 12 -8 -4 -15 -2 -15 4 0 17 -27 21 -54 7z m-34 -37
c-7 -7 -12 -8 -12 -2 0 14 12 26 19 19 2 -3 -1 -11 -7 -17z"/>
<path d="M4395 2122 c-11 -2 -29 -14 -40 -26 -11 -12 -16 -16 -11 -9 5 8 7 16
4 19 -3 3 -15 -12 -28 -32 -14 -25 -16 -33 -6 -25 20 16 20 3 2 -22 -8 -10
-16 -14 -18 -10 -3 4 -3 2 -1 -5 4 -19 -26 -74 -37 -67 -6 4 -10 1 -10 -4 0
-6 4 -11 10 -11 12 0 2 -31 -15 -45 -19 -16 -32 -47 -40 -95 -3 -25 -9 -52
-11 -62 -4 -12 10 -23 51 -43 49 -24 58 -26 85 -15 17 7 30 20 30 30 0 10 14
62 31 116 17 55 30 107 30 118 0 10 11 41 25 68 14 28 20 47 14 43 -9 -6 -9
-2 -1 14 13 24 7 41 -14 41 -8 0 -18 6 -22 13 -4 7 -17 11 -28 9z"/>
<path d="M4440 1969 c-7 -11 -10 -23 -7 -25 2 -2 9 7 15 21 14 30 7 33 -8 4z"/>
<path d="M3466 1943 c-6 -14 -5 -15 5 -6 7 7 10 15 7 18 -3 3 -9 -2 -12 -12z"/>
<path d="M4836 1907 c-17 -26 -126 -347 -126 -370 0 -43 -22 -65 -78 -76 -30
-6 -74 -11 -98 -11 -59 0 -64 -21 -18 -77 38 -47 94 -78 106 -59 4 7 9 5 13
-6 4 -9 -10 -85 -30 -169 -46 -192 -50 -296 -15 -355 65 -108 143 -150 192
-104 12 11 27 20 34 20 7 0 16 9 19 20 3 11 12 20 19 20 7 0 18 11 24 25 6 14
17 25 23 25 6 0 9 7 6 14 -4 9 2 17 14 21 20 7 20 7 -2 26 l-22 19 27 0 c16 0
25 4 21 10 -3 6 5 14 19 20 14 5 26 15 26 22 0 6 10 23 23 37 l22 26 -23 -19
c-27 -23 -39 -15 -20 13 8 12 18 18 21 14 10 -9 9 2 -3 33 -8 21 -8 30 2 36 9
6 5 7 -9 3 -27 -8 -30 3 -5 21 15 12 14 13 -10 14 -17 0 -27 -5 -25 -12 1 -7
-8 -17 -20 -22 -12 -6 -27 -21 -34 -33 -7 -13 -16 -23 -21 -23 -4 0 -8 -7 -8
-15 0 -8 -7 -15 -15 -15 -8 0 -15 -5 -15 -10 0 -6 -12 -24 -27 -39 -16 -16
-46 -47 -67 -70 -36 -37 -63 -48 -60 -25 10 84 30 201 41 244 18 69 19 72 26
90 3 8 10 45 15 83 6 37 17 73 24 80 14 15 78 38 113 42 11 1 20 3 20 4 0 1
20 4 45 7 25 2 47 9 48 14 2 6 8 10 13 10 6 0 7 -4 4 -10 -4 -7 3 -7 20 0 15
6 31 7 37 4 7 -5 8 -2 3 6 -6 10 -4 12 10 7 9 -4 23 -3 29 2 6 5 40 10 76 12
36 2 71 7 78 12 6 5 12 6 12 1 0 -5 5 -2 10 6 6 10 10 11 10 3 0 -7 4 -13 10
-13 5 0 7 6 4 14 -4 11 0 13 15 9 21 -5 29 11 11 22 -6 4 -8 10 -5 15 10 16
-56 60 -93 62 -59 2 -186 -4 -196 -10 -5 -3 -21 -6 -35 -7 -14 -2 -61 -8 -104
-15 -43 -6 -80 -10 -83 -8 -2 2 5 22 15 44 26 54 34 78 32 87 -1 5 7 20 18 35
10 15 19 30 20 35 0 4 6 20 14 35 7 15 12 34 11 42 -1 8 -2 23 -3 32 -2 26
-48 75 -81 87 -26 9 -32 7 -44 -12z m144 -906 c0 -6 -4 -12 -8 -15 -5 -3 -9 1
-9 9 0 8 4 15 9 15 4 0 8 -4 8 -9z m-5 -71 c3 -5 2 -10 -4 -10 -5 0 -13 5 -16
10 -3 6 -2 10 4 10 5 0 13 -4 16 -10z m-85 -130 c0 -5 -5 -10 -11 -10 -5 0 -7
5 -4 10 3 6 8 10 11 10 2 0 4 -4 4 -10z"/>
<path d="M1652 1584 c-24 -12 -62 -39 -85 -58 -23 -20 -58 -48 -77 -61 -19
-14 -88 -76 -154 -138 -65 -62 -125 -116 -132 -120 -11 -6 -19 2 -30 30 -57
137 -151 210 -235 183 -30 -10 -39 -19 -39 -35 0 -13 7 -28 16 -36 8 -7 41
-56 71 -108 31 -53 65 -107 75 -120 10 -13 18 -29 18 -36 0 -13 -173 -187
-193 -194 -13 -5 -21 -12 -84 -73 -24 -23 -39 -46 -36 -54 8 -21 120 -84 148
-84 15 0 36 12 52 31 16 18 34 37 41 43 45 38 77 72 74 79 -1 5 7 11 18 14 11
3 20 12 20 20 0 13 -3 13 -15 3 -9 -7 -18 -10 -21 -7 -8 8 47 56 64 57 6 0 12
7 12 16 0 8 4 13 9 10 11 -7 153 -259 179 -317 l20 -46 69 -7 c67 -7 102 -2
114 16 7 11 -38 106 -91 193 -22 36 -36 65 -32 65 4 0 2 4 -4 8 -6 4 -31 39
-54 77 -24 39 -52 81 -62 94 -25 33 -23 66 7 85 14 9 23 21 19 27 -3 6 2 9 12
7 13 -2 22 7 31 32 6 19 12 31 12 26 1 -16 34 19 69 73 19 29 43 56 53 58 10
3 19 12 19 19 0 8 3 14 8 14 8 0 202 185 202 193 0 3 -10 3 -22 0 -18 -5 -21
-3 -11 7 11 12 7 41 -6 39 -3 -1 -25 -12 -49 -25z"/>
<path d="M3244 1526 c-3 -9 -4 -35 -1 -58 4 -39 -1 -121 -18 -333 -4 -38 -8
-148 -10 -242 l-3 -173 24 -19 c13 -10 24 -22 24 -25 0 -3 -17 -14 -37 -25
-46 -23 -83 -54 -83 -70 0 -6 8 -19 18 -29 9 -9 26 -30 37 -45 14 -20 26 -26
38 -21 9 3 15 10 12 14 -3 5 0 12 6 16 8 4 9 3 5 -4 -12 -20 8 -13 67 24 31
20 55 40 51 45 -3 5 -2 9 3 8 24 -4 43 2 37 13 -4 7 -3 8 4 4 6 -4 43 9 81 29
39 20 76 33 82 29 8 -5 9 -3 4 6 -6 10 -4 12 10 6 19 -7 100 19 126 41 8 7 19
13 24 13 5 0 16 7 26 16 10 9 35 22 56 29 21 7 42 20 47 28 14 22 -9 91 -45
131 -40 46 -82 64 -164 69 -69 5 -160 30 -180 48 -5 6 -10 21 -10 34 -1 13 1
23 3 20 6 -5 39 29 35 37 -8 16 18 58 36 58 11 0 23 9 26 20 3 11 13 20 21 20
8 0 13 5 12 11 -2 6 3 14 11 17 9 3 11 0 6 -8 -4 -6 9 -1 29 12 20 13 36 29
36 36 0 6 5 12 11 12 5 0 7 -4 4 -10 -3 -5 -1 -10 4 -10 6 0 11 4 11 9 0 14
44 21 52 8 6 -9 8 -8 8 3 0 13 1 13 10 0 7 -11 10 -7 10 18 0 37 -28 98 -58
125 -19 17 -23 18 -69 2 -26 -9 -66 -28 -88 -42 -41 -27 -160 -145 -168 -166
-3 -7 -5 38 -5 98 0 102 -9 156 -29 168 -4 3 -36 8 -70 12 -53 6 -64 4 -69 -9z
m165 -525 c22 -42 77 -94 92 -85 5 3 9 1 9 -5 0 -5 12 -8 26 -5 17 3 23 1 19
-6 -4 -6 -1 -10 6 -9 8 1 23 -1 34 -5 11 -5 26 -10 33 -12 7 -2 10 -8 7 -14
-4 -6 -10 -8 -15 -5 -4 3 -10 -1 -13 -9 -3 -7 -16 -16 -29 -19 -35 -8 -104
-36 -93 -37 8 -1 -70 -29 -82 -30 -2 0 -3 14 -3 31 0 16 -3 28 -7 26 -5 -3 -9
46 -10 109 -1 63 0 114 3 114 2 0 12 -17 23 -39z"/>
<path d="M4211 1532 c-10 -7 -11 -22 -6 -59 6 -43 -4 -213 -21 -383 -3 -30 -7
-126 -7 -214 l-2 -158 25 -17 c64 -43 106 -50 145 -25 20 13 25 25 25 60 0 24
-4 44 -9 44 -5 0 -8 29 -6 65 2 36 0 65 -4 65 -6 0 -7 42 -2 65 2 6 2 24 1 40
-1 17 6 112 16 211 15 152 16 191 5 237 -6 30 -18 57 -25 60 -29 11 -122 17
-135 9z"/>
<path d="M2897 1484 c-4 -4 -7 -23 -7 -43 0 -36 -16 -68 -58 -111 -12 -13 -21
-29 -18 -35 2 -5 -4 -19 -13 -29 -13 -16 -13 -18 -1 -11 8 4 0 -7 -17 -25 -18
-18 -34 -36 -34 -41 -1 -5 -2 -13 -3 -18 0 -5 -4 -13 -8 -17 -5 -4 -8 -17 -8
-28 0 -17 -2 -18 -10 -6 -8 12 -10 9 -10 -12 0 -15 -8 -33 -18 -40 -10 -7 -27
-29 -38 -48 -10 -19 -28 -46 -39 -59 -13 -16 -15 -22 -5 -17 8 4 6 -1 -5 -11
-28 -25 -53 -59 -38 -49 9 5 11 2 7 -8 -3 -9 -10 -14 -14 -11 -4 3 -13 -2 -20
-10 -7 -8 -16 -15 -21 -15 -13 0 -11 87 2 111 7 13 7 25 1 32 -14 17 -10 46
12 86 10 18 16 42 13 52 -3 11 -1 22 4 25 5 3 7 9 4 14 -7 12 25 90 37 90 5 0
7 4 3 9 -3 5 -1 12 4 15 6 4 6 18 1 35 -4 16 -6 32 -3 34 16 17 -68 87 -105
87 -5 0 -30 -55 -56 -122 -42 -112 -47 -136 -57 -258 -16 -188 5 -258 107
-362 31 -33 43 -38 80 -38 32 0 44 4 44 15 0 8 11 22 25 31 14 9 25 20 25 26
0 5 12 20 28 34 18 16 21 22 8 18 -17 -6 -17 -5 -6 17 18 34 41 59 50 54 4 -3
10 2 14 10 3 8 1 15 -4 15 -5 0 -1 15 9 33 10 17 24 31 29 30 6 -2 9 3 6 11
-3 8 -1 17 4 20 5 3 10 -20 11 -50 2 -63 20 -106 63 -146 32 -30 43 -33 73
-24 19 7 20 16 20 145 0 101 4 146 15 166 12 23 12 27 0 35 -8 6 -10 10 -4 10
6 0 17 28 24 63 7 34 17 67 21 73 5 6 3 16 -3 22 -9 9 -9 12 -1 12 16 0 27 38
24 80 -3 37 -28 86 -58 112 -21 18 -76 32 -86 22z m-122 -544 c-3 -5 -11 -10
-16 -10 -6 0 -7 5 -4 10 3 6 11 10 16 10 6 0 7 -4 4 -10z"/>
<path d="M1962 1463 c-18 -9 -49 -36 -69 -59 -49 -61 -104 -154 -90 -154 7 0
2 -8 -10 -18 -32 -24 -83 -164 -90 -243 -4 -48 -2 -73 10 -96 34 -65 130 -122
207 -123 37 0 50 5 73 29 15 16 27 34 27 39 0 5 7 12 15 16 8 3 15 12 15 20 0
7 7 17 16 20 14 5 15 1 10 -31 -3 -21 -9 -192 -12 -380 l-7 -343 30 -27 c39
-36 112 -60 125 -41 4 7 6 24 3 38 -4 20 -15 165 -16 205 0 6 2 79 5 162 4
108 2 153 -5 153 -8 0 -8 4 -1 13 6 7 14 62 17 123 3 60 7 116 10 124 2 8 7
51 10 95 3 44 12 140 20 212 16 142 12 166 -30 208 -27 28 -73 47 -95 40 -10
-3 -33 3 -52 15 -40 24 -72 25 -116 3z m136 -91 c15 -10 -45 -188 -99 -292
-18 -36 -33 -67 -34 -70 -1 -13 -40 -70 -47 -70 -4 0 -8 -6 -8 -14 0 -15 -59
-40 -69 -30 -8 8 -8 83 0 78 9 -5 20 56 12 69 -3 5 -1 7 4 4 6 -4 16 7 22 25
13 38 14 48 1 28 -8 -13 -10 -13 -10 2 0 9 8 23 19 30 25 18 63 87 55 100 -5
7 -2 8 6 3 10 -6 12 -4 7 9 -6 14 -3 17 9 12 11 -4 14 -1 10 12 -4 12 3 27 21
43 15 13 21 16 14 6 -12 -15 -12 -17 3 -11 9 3 17 10 17 15 1 5 3 14 4 19 1 6
3 13 4 18 1 4 5 1 10 -6 6 -10 11 -9 22 4 12 15 12 17 0 9 -10 -5 -12 -4 -7 3
8 14 16 15 34 4z"/>
<path d="M354 1446 c-71 -36 -184 -131 -184 -153 0 -7 -4 -13 -9 -13 -12 0
-75 -94 -90 -133 -27 -71 0 -239 53 -328 64 -109 157 -166 251 -155 87 11 176
48 210 87 20 24 20 24 0 9 -18 -14 -19 -14 -6 2 7 10 17 16 21 13 4 -2 17 5
30 17 22 21 22 22 4 29 -10 4 -13 8 -6 8 6 1 12 10 12 22 0 14 5 19 14 16 13
-5 59 37 50 46 -3 2 16 21 41 41 24 20 44 40 42 44 -1 4 2 8 6 9 10 2 36 35
37 45 0 4 -7 5 -15 2 -23 -9 -18 6 10 28 14 11 25 23 25 27 0 13 -69 6 -82 -9
-11 -11 -10 -11 6 0 17 13 19 13 14 0 -2 -8 -16 -16 -31 -18 -15 -2 -35 -13
-44 -25 -10 -12 -31 -31 -48 -41 -16 -11 -34 -25 -38 -33 -4 -7 -13 -13 -20
-13 -7 0 -24 -11 -39 -25 -15 -14 -32 -25 -38 -25 -5 0 -9 -5 -8 -12 4 -16
-147 -99 -193 -105 -80 -11 -123 34 -138 145 -7 48 2 71 15 37 7 -16 63 -21
79 -7 6 5 36 19 68 32 32 12 70 32 84 44 15 11 39 28 54 36 34 19 168 139 180
161 15 29 -17 113 -56 148 -84 73 -178 91 -261 47z m156 -126 c0 -6 -27 -29
-60 -53 -33 -23 -60 -48 -60 -54 0 -7 -3 -12 -7 -11 -5 2 -34 -12 -66 -31 -32
-18 -60 -31 -62 -29 -6 6 18 58 27 58 3 0 24 18 45 39 60 62 183 116 183 81z
m250 -290 c0 -5 -4 -10 -10 -10 -5 0 -10 5 -10 10 0 6 5 10 10 10 6 0 10 -4
10 -10z m0 -50 c0 -5 -5 -10 -11 -10 -5 0 -7 5 -4 10 3 6 8 10 11 10 2 0 4 -4
4 -10z"/>
<path d="M5535 1418 c-11 -6 -25 -17 -31 -24 -10 -12 -18 -11 -55 5 -37 17
-47 18 -64 7 -27 -18 -106 -148 -100 -164 3 -7 1 -11 -4 -7 -5 3 -12 -8 -16
-25 -4 -16 -10 -30 -15 -30 -20 0 -60 -155 -60 -233 0 -75 22 -130 77 -195
134 -157 276 -113 458 143 89 125 119 190 118 256 -2 106 -68 205 -172 258
-44 23 -104 27 -136 9z m186 -128 c44 -24 18 -103 -79 -246 -92 -137 -201
-230 -288 -248 -45 -10 -58 11 -50 77 8 57 32 161 45 192 5 11 17 39 26 63 10
23 21 42 25 42 4 0 13 12 19 28 7 15 23 35 37 45 23 17 28 18 57 3 28 -13 33
-13 40 0 25 44 121 69 168 44z"/>
</g>
</svg>
