<?xml version="1.0" standalone="no"?>
<!DOCTYPE svg PUBLIC "-//W3C//DTD SVG 20010904//EN"
 "http://www.w3.org/TR/2001/REC-SVG-20010904/DTD/svg10.dtd">
<svg version="1.0" xmlns="http://www.w3.org/2000/svg"
 width="822.000000pt" height="356.000000pt" viewBox="0 0 822.000000 356.000000"
 preserveAspectRatio="xMidYMid meet">

<g transform="translate(0.000000,356.000000) scale(0.100000,-0.100000)"
fill="#000000" stroke="none">
<path d="M1454 3392 c-22 -13 -81 -127 -140 -266 -32 -76 -63 -140 -69 -141
-5 -1 -71 -17 -145 -35 -160 -38 -286 -84 -300 -110 -15 -28 -12 -50 6 -50 9
0 49 12 88 26 78 28 303 94 322 94 7 0 -8 -52 -38 -127 -68 -178 -244 -671
-252 -709 -7 -32 -31 -44 -90 -44 -11 0 -38 -5 -58 -11 -29 -7 -38 -15 -38
-31 0 -20 3 -21 75 -15 41 4 75 5 75 3 0 -2 -25 -92 -55 -200 -63 -229 -115
-471 -115 -542 0 -54 25 -105 61 -125 65 -34 387 24 724 132 132 42 307 117
319 137 4 6 -4 18 -18 27 -23 15 -28 14 -93 -18 -163 -82 -655 -216 -855 -234
l-68 -6 -14 35 c-14 31 -13 45 4 129 30 148 177 659 194 676 2 2 172 23 379
47 396 45 417 50 417 98 0 22 8 22 -108 -1 -54 -11 -185 -29 -292 -41 -107
-11 -233 -25 -279 -31 -46 -5 -86 -8 -88 -5 -6 6 129 411 232 696 l67 185 117
23 c215 42 325 54 566 62 240 8 279 13 272 34 -5 16 -153 19 -382 6 -176 -10
-457 -40 -524 -57 -29 -7 -28 -2 39 157 27 63 52 126 55 140 4 14 16 39 26 56
11 17 19 34 19 38 0 8 -22 7 -36 -2z"/>
<path d="M6762 3252 c-37 -40 -81 -142 -129 -306 l-38 -126 -213 0 c-166 0
-220 3 -248 15 -33 13 -40 13 -70 -1 -19 -9 -34 -23 -34 -30 0 -29 57 -36 303
-42 136 -2 247 -7 247 -10 0 -2 -13 -68 -29 -146 -27 -128 -69 -394 -86 -538
-4 -39 -11 -58 -23 -63 -251 -98 -410 -148 -481 -149 l-56 -1 -3 37 c-2 21 8
68 22 110 31 88 32 98 9 98 -33 -1 -54 -28 -70 -87 -38 -145 -15 -209 75 -207
54 1 210 46 385 111 66 24 121 42 124 39 3 -2 -3 -85 -13 -183 -21 -217 -25
-549 -6 -610 10 -33 18 -43 34 -43 19 0 20 3 12 58 -19 124 -5 470 28 724 l11
87 73 30 c41 17 77 31 82 31 4 0 15 -12 24 -27 16 -27 15 -30 -22 -91 -97
-160 -117 -346 -44 -419 22 -22 32 -25 74 -21 119 12 261 192 300 381 6 31 14
57 17 57 62 0 494 117 516 139 24 24 -9 22 -115 -7 -138 -38 -274 -68 -350
-77 l-58 -7 0 39 c0 101 -65 212 -135 232 -91 25 -205 -49 -205 -132 0 -20
-11 -28 -71 -52 -38 -15 -72 -25 -74 -23 -9 8 69 472 106 630 l20 86 332 4
c183 2 340 8 350 12 10 5 16 14 14 20 -3 8 -102 12 -334 16 -182 3 -334 8
-338 11 -12 13 96 321 121 346 27 27 31 69 10 98 -13 19 -15 18 -44 -13z m139
-1081 c37 -39 59 -102 59 -168 0 -26 -1 -26 -59 -20 -32 4 -70 11 -85 17 l-27
10 30 37 c47 57 18 77 -34 23 -16 -16 -33 -30 -37 -30 -5 0 -15 15 -23 34 -28
67 25 136 104 136 27 0 42 -9 72 -39z m-33 -229 c92 -17 91 -15 67 -105 -21
-79 -68 -170 -118 -224 -46 -50 -116 -88 -147 -78 -48 15 -51 149 -6 268 34
90 86 169 106 161 8 -4 52 -14 98 -22z"/>
<path d="M5515 2418 c-72 -73 -80 -144 -32 -289 l24 -70 -36 -15 c-20 -8 -117
-45 -216 -81 -295 -108 -415 -135 -429 -96 -4 9 -2 41 4 70 11 52 14 55 87
104 52 35 71 54 63 59 -14 9 -35 4 -65 -17 -25 -17 -35 -17 -35 2 0 21 -43 19
-63 -2 -8 -10 -19 -31 -23 -47 -7 -30 -14 -35 -269 -195 -176 -111 -395 -219
-462 -227 -51 -6 -53 -6 -64 22 -15 41 15 157 80 308 28 65 51 125 51 132 0 8
-10 14 -24 14 -18 0 -52 -30 -132 -116 -111 -119 -251 -234 -285 -234 -48 0
-1 153 82 266 46 63 54 94 22 94 -37 0 -122 -140 -157 -259 -29 -98 -17 -151
34 -151 43 0 167 88 274 196 l94 95 -29 -70 c-39 -94 -72 -236 -64 -278 9 -49
37 -73 85 -73 104 0 345 119 640 317 l95 63 5 -51 c9 -82 50 -101 162 -74 75
18 374 120 508 173 41 16 78 28 82 25 4 -2 12 -21 18 -41 l11 -37 -120 -121
c-190 -192 -283 -355 -285 -496 0 -53 4 -74 20 -95 61 -81 136 -90 257 -30
127 63 215 184 240 332 13 74 -1 218 -32 329 l-18 67 46 40 c77 68 163 130
223 160 55 28 74 49 44 49 -25 0 -155 -71 -233 -127 -43 -30 -83 -57 -89 -60
-9 -3 -40 56 -32 62 2 1 18 7 36 14 41 17 45 46 5 37 -16 -4 -35 -8 -42 -9
-19 -3 -70 124 -71 174 0 45 31 92 90 137 25 19 45 40 45 46 0 6 -17 12 -38
14 -34 3 -44 -2 -82 -40z m80 -613 c9 -33 19 -103 22 -155 4 -80 2 -105 -16
-159 -42 -123 -122 -218 -226 -267 -58 -28 -126 -31 -149 -8 -60 59 -15 240
101 402 59 83 234 265 244 255 4 -5 15 -35 24 -68z"/>
<path d="M4905 2366 c-20 -30 -11 -76 16 -76 10 0 26 11 35 25 14 21 15 31 6
50 -15 32 -37 32 -57 1z"/>
<path d="M5980 2371 c-15 -29 -12 -71 5 -78 21 -7 55 25 55 52 0 42 -41 60
-60 26z"/>
<path d="M2604 2284 c-32 -53 -88 -134 -123 -181 -66 -88 -237 -273 -252 -273
-4 0 -38 28 -74 61 -93 88 -137 178 -143 297 -3 48 -9 90 -15 94 -24 15 -37
-15 -37 -81 0 -135 50 -252 152 -356 l68 -69 -28 -23 c-64 -55 -187 -145 -223
-166 -39 -22 -48 -49 -18 -55 18 -3 166 92 253 163 l60 48 80 -29 c69 -25 95
-29 176 -28 122 1 233 36 457 144 l162 78 -28 -56 c-70 -140 -82 -282 -22
-282 32 0 114 63 239 184 67 65 122 114 122 108 0 -6 -23 -111 -51 -234 -27
-123 -63 -284 -79 -358 -64 -300 -89 -572 -54 -601 23 -19 34 4 34 73 0 84 26
260 66 448 44 204 154 658 195 804 30 104 30 111 15 143 -10 21 -23 33 -36 33
-20 0 -39 -49 -56 -143 -16 -90 -354 -440 -390 -404 -14 13 17 116 61 201 61
119 76 138 145 179 56 34 60 35 70 17 5 -10 10 -39 10 -64 0 -34 4 -46 15 -46
18 0 20 47 4 104 -10 36 -9 41 13 58 23 18 17 23 -25 19 -9 -1 -24 5 -33 13
-35 36 -85 9 -142 -77 -21 -31 -47 -49 -136 -91 -248 -119 -426 -176 -545
-176 -65 0 -164 19 -194 37 -5 3 31 46 80 97 162 166 333 418 318 467 -12 36
-31 19 -91 -77z"/>
<path d="M175 270 c-3 -5 -2 -10 3 -10 5 0 21 -18 36 -40 28 -42 34 -88 14
-108 -9 -9 -2 -12 33 -12 39 1 42 2 27 14 -10 7 -18 23 -18 36 0 24 49 110 63
110 4 0 7 5 7 10 0 6 -12 10 -26 10 -16 0 -24 -5 -21 -12 2 -7 -2 -26 -11 -42
l-14 -29 -19 24 c-10 13 -16 32 -13 42 4 13 -1 17 -25 17 -16 0 -33 -4 -36
-10z"/>
<path d="M481 269 c-84 -34 -58 -169 32 -169 69 0 109 62 82 127 -21 49 -60
64 -114 42z m67 -29 c25 -23 31 -87 10 -108 -20 -20 -55 -13 -77 14 -53 68 6
150 67 94z"/>
<path d="M706 245 c2 -19 6 -51 9 -71 6 -49 30 -74 71 -74 55 0 69 24 77 128
4 49 3 52 -19 52 -13 0 -24 -4 -24 -10 0 -5 5 -10 10 -10 13 0 13 -81 0 -114
-6 -18 -17 -26 -32 -26 -44 0 -51 13 -46 89 l4 71 -28 0 c-25 0 -26 -3 -22
-35z"/>
<path d="M965 270 c-3 -5 -1 -10 4 -10 15 0 14 -133 -1 -148 -9 -9 -2 -12 33
-12 39 1 42 2 27 14 -20 15 -25 66 -7 66 6 0 28 -18 48 -40 20 -22 45 -40 54
-40 15 0 12 8 -17 44 -32 38 -34 45 -21 56 22 18 18 46 -7 64 -25 18 -103 22
-113 6z m99 -33 c9 -15 7 -21 -9 -33 -23 -17 -39 -14 -43 10 -9 45 29 61 52
23z"/>
<path d="M1400 273 c-36 -14 -60 -47 -60 -84 0 -58 28 -84 88 -84 28 0 52 2
55 5 2 3 7 20 10 38 6 31 6 32 -31 32 -33 -1 -35 -2 -19 -14 25 -19 22 -46 -6
-46 -35 0 -67 35 -67 75 0 43 25 69 59 61 48 -12 56 -11 56 4 0 16 -56 24 -85
13z"/>
<path d="M1595 270 c-3 -5 -2 -10 3 -10 5 0 12 -27 14 -60 5 -71 26 -100 73
-100 40 0 64 26 70 74 15 114 16 106 -11 106 -24 0 -32 -14 -14 -25 13 -8 13
-76 0 -109 -10 -27 -41 -34 -70 -16 -17 10 -21 102 -6 133 7 14 3 17 -22 17
-17 0 -34 -4 -37 -10z"/>
<path d="M1865 270 c-3 -5 -1 -10 4 -10 15 0 14 -133 -1 -148 -9 -9 -4 -12 25
-12 20 0 37 5 37 10 0 6 -4 10 -10 10 -6 0 -10 28 -10 64 0 36 5 68 10 71 6 3
10 10 10 16 0 12 -57 12 -65 -1z"/>
<path d="M2020 270 c0 -5 5 -10 10 -10 6 0 10 -27 10 -62 0 -44 -5 -67 -17
-81 -18 -20 -17 -20 50 -15 53 5 74 11 93 29 45 42 25 122 -35 139 -46 13
-111 13 -111 0z m119 -36 c41 -52 19 -114 -40 -114 l-29 0 0 63 c0 35 3 67 7
70 14 15 43 6 62 -19z"/>
<path d="M2280 270 c0 -5 5 -10 10 -10 14 0 13 -133 -2 -148 -9 -9 0 -12 44
-12 66 0 88 7 88 26 0 11 -4 12 -19 4 -11 -5 -31 -10 -45 -10 -22 0 -26 4 -26
31 0 30 2 31 30 26 17 -4 30 -2 30 3 0 6 0 13 1 18 1 4 -13 6 -30 4 -28 -3
-31 -1 -31 23 0 30 25 43 51 27 25 -16 29 -15 29 8 0 18 -7 20 -65 20 -37 0
-65 -4 -65 -10z"/>
<path d="M2620 260 c0 -17 3 -19 19 -10 11 5 24 10 30 10 15 0 14 -133 -1
-148 -9 -9 -1 -12 37 -12 39 1 46 3 33 11 -24 13 -27 149 -4 149 8 0 18 -4 21
-10 10 -17 25 -11 25 10 0 18 -7 20 -80 20 -74 0 -80 -2 -80 -20z"/>
<path d="M2930 273 c-55 -20 -74 -77 -45 -132 24 -48 86 -56 132 -17 23 20 28
32 27 67 -2 65 -55 103 -114 82z m52 -27 c48 -36 39 -118 -13 -124 -53 -6 -90
79 -52 120 19 21 41 23 65 4z"/>
<path d="M3250 258 c0 -17 3 -19 12 -10 7 7 20 12 30 12 16 0 18 -9 18 -68 0
-40 -5 -73 -12 -80 -9 -9 -2 -12 32 -12 40 1 43 2 27 14 -15 11 -17 26 -15 77
3 66 8 72 51 54 13 -5 17 -2 17 14 0 20 -5 21 -80 21 -76 0 -80 -1 -80 -22z"/>
<path d="M3508 205 c3 -50 0 -80 -8 -90 -11 -13 -4 -15 53 -15 46 0 68 4 77
15 16 19 5 34 -12 17 -7 -7 -25 -12 -40 -12 -25 0 -28 4 -28 30 0 27 3 30 27
28 18 -2 28 2 31 13 2 12 -4 15 -28 11 -28 -4 -30 -2 -30 27 0 26 4 31 24 31
14 0 28 -5 32 -11 4 -8 9 -7 15 2 13 22 0 29 -59 29 l-57 0 3 -75z"/>
<path d="M3739 273 c0 -5 0 -39 1 -76 1 -40 -4 -74 -11 -83 -10 -12 -5 -14 27
-14 35 1 37 2 22 14 -13 9 -18 27 -18 62 l0 49 61 -62 c34 -35 63 -63 65 -63
2 0 4 35 4 78 0 47 5 83 12 90 9 9 5 12 -20 12 -18 0 -32 -4 -32 -10 0 -5 5
-10 10 -10 6 0 10 -24 10 -52 l-1 -53 -55 63 c-52 58 -73 73 -75 55z"/>
<path d="M4000 271 c0 -6 5 -13 10 -16 18 -11 12 -116 -7 -138 -18 -20 -17
-20 52 -14 59 4 73 9 92 32 42 48 23 118 -36 135 -46 13 -111 13 -111 1z m119
-37 c40 -50 17 -114 -41 -114 -28 0 -28 0 -28 63 0 35 3 67 7 70 14 15 43 6
62 -19z"/>
<path d="M4260 270 c0 -5 5 -10 10 -10 13 0 13 -116 0 -141 -10 -18 -7 -19 44
-19 64 0 86 7 86 26 0 16 -16 19 -25 4 -3 -6 -19 -10 -36 -10 -26 0 -29 3 -29
31 0 30 2 31 30 26 24 -5 30 -3 30 12 0 14 -6 17 -30 13 -27 -4 -30 -2 -30 22
0 31 24 44 50 28 19 -12 30 -6 30 15 0 9 -17 13 -65 13 -37 0 -65 -4 -65 -10z"/>
<path d="M4490 271 c0 -6 5 -13 10 -16 13 -8 13 -111 0 -136 -10 -17 -7 -19
32 -19 38 1 41 2 26 14 -18 13 -25 66 -10 66 4 0 26 -18 47 -40 21 -22 48 -40
58 -40 16 0 13 7 -18 41 -34 38 -36 42 -20 59 22 24 11 58 -22 71 -32 12 -103
12 -103 0z m98 -40 c4 -23 -11 -41 -35 -41 -8 0 -13 14 -13 36 0 31 3 35 23
32 14 -2 23 -11 25 -27z"/>
<path d="M4750 270 c0 -5 5 -10 10 -10 14 0 13 -133 -2 -148 -9 -9 0 -12 44
-12 66 0 88 7 88 26 0 16 -16 19 -25 4 -3 -6 -19 -10 -36 -10 -29 0 -29 0 -29
61 0 33 5 69 10 80 10 17 7 19 -25 19 -19 0 -35 -4 -35 -10z"/>
<path d="M5040 273 c-32 -12 -60 -47 -60 -75 0 -36 24 -83 45 -92 77 -29 149
35 125 110 -18 52 -61 75 -110 57z m58 -33 c25 -23 31 -87 10 -108 -20 -20
-55 -13 -77 14 -25 32 -27 71 -4 96 21 24 44 23 71 -2z"/>
<path d="M5250 272 c0 -4 5 -13 11 -19 12 -12 8 -106 -5 -135 -7 -15 -3 -18
30 -18 30 0 35 3 26 12 -7 7 -12 40 -12 78 0 38 5 71 12 78 9 9 4 12 -25 12
-20 0 -37 -4 -37 -8z"/>
<path d="M5419 273 c0 -5 0 -39 1 -76 1 -40 -4 -74 -11 -83 -10 -12 -5 -14 27
-14 35 1 37 2 22 14 -13 9 -18 27 -18 62 l1 49 59 -62 c33 -35 62 -63 65 -63
3 0 5 35 5 78 0 47 5 83 12 90 9 9 5 12 -20 12 -18 0 -32 -4 -32 -10 0 -5 5
-10 10 -10 6 0 10 -24 10 -52 l-1 -53 -57 63 c-54 59 -71 72 -73 55z"/>
<path d="M5795 270 c-3 -5 -1 -10 4 -10 15 0 14 -133 -1 -148 -9 -9 0 -12 44
-12 66 0 88 7 88 26 0 11 -4 12 -19 4 -11 -5 -31 -10 -45 -10 -22 0 -26 4 -26
31 0 30 2 31 30 26 17 -4 30 -2 30 3 0 6 0 13 1 18 1 4 -13 6 -30 4 -28 -3
-31 -1 -31 23 0 30 25 43 51 27 25 -16 29 -15 29 8 0 18 -7 20 -59 20 -33 0
-63 -4 -66 -10z"/>
<path d="M6020 272 c0 -4 8 -12 18 -18 9 -6 25 -25 34 -41 17 -30 17 -30 -18
-72 l-36 -41 31 0 c23 0 29 4 24 15 -3 9 3 25 12 35 17 19 19 19 31 2 7 -9 14
-25 14 -34 0 -14 8 -18 35 -18 19 0 35 2 35 3 0 2 -18 23 -40 46 l-40 42 21
30 c12 17 28 33 35 36 25 9 15 24 -13 21 -19 -2 -27 -8 -25 -19 1 -9 -5 -22
-14 -30 -14 -11 -18 -11 -29 5 -8 10 -11 24 -8 32 4 10 -4 14 -31 14 -20 0
-36 -3 -36 -8z"/>
<path d="M6330 267 c-33 -17 -53 -60 -45 -97 13 -57 86 -89 130 -56 18 13 16
14 -19 14 -48 0 -79 28 -79 72 0 17 7 38 16 48 15 14 22 15 49 4 33 -12 56 -3
44 17 -10 15 -65 14 -96 -2z"/>
<path d="M6525 270 c-3 -5 -1 -10 4 -10 15 0 14 -133 -1 -148 -9 -9 2 -12 49
-12 43 0 66 5 78 16 19 20 12 32 -9 15 -8 -7 -27 -11 -43 -9 -23 2 -29 9 -31
32 -3 27 -2 28 26 23 26 -5 42 5 42 27 0 1 -16 0 -35 -2 -29 -3 -35 -1 -35 14
0 38 16 50 50 37 27 -10 30 -9 30 8 0 17 -8 19 -59 19 -33 0 -63 -4 -66 -10z"/>
<path d="M6755 270 c-3 -5 -1 -10 4 -10 15 0 14 -133 -1 -148 -9 -9 0 -12 44
-12 65 0 88 7 88 25 0 10 -6 11 -29 2 -48 -18 -61 -5 -61 62 0 33 5 63 10 66
6 3 10 10 10 16 0 12 -57 12 -65 -1z"/>
<path d="M6980 270 c0 -5 5 -10 10 -10 18 0 12 -121 -7 -142 -15 -17 -14 -18
45 -18 69 0 92 6 92 26 0 16 -16 19 -25 4 -3 -6 -19 -10 -36 -10 l-29 0 0 68
c0 40 5 73 12 80 9 9 4 12 -25 12 -20 0 -37 -4 -37 -10z"/>
<path d="M7210 271 c0 -6 5 -13 10 -16 16 -10 12 -108 -6 -133 l-15 -22 64 0
c46 0 68 4 77 15 16 19 5 34 -12 17 -7 -7 -25 -12 -40 -12 -25 0 -28 4 -28 30
0 27 3 30 27 28 18 -2 28 2 31 13 2 12 -4 15 -28 11 -28 -4 -30 -2 -30 27 0
26 4 31 24 31 14 0 28 -5 32 -11 4 -8 9 -7 15 2 4 7 5 17 3 21 -7 11 -124 10
-124 -1z"/>
<path d="M7449 273 c0 -5 0 -39 1 -76 1 -40 -4 -74 -11 -83 -10 -12 -5 -14 27
-14 35 1 37 2 22 14 -13 9 -18 27 -18 62 l0 49 61 -62 c34 -35 63 -63 65 -63
2 0 4 33 4 74 0 41 5 78 10 81 20 12 9 25 -20 25 -16 0 -30 -4 -30 -10 0 -5 5
-10 10 -10 6 0 10 -24 10 -52 l-1 -53 -55 63 c-52 58 -73 73 -75 55z"/>
<path d="M7764 270 c-28 -11 -54 -48 -54 -78 0 -30 25 -78 45 -86 27 -10 69
-6 88 8 24 19 21 27 -6 17 -33 -13 -85 11 -93 43 -15 62 26 103 76 76 25 -13
35 -8 27 15 -7 16 -49 19 -83 5z"/>
<path d="M7950 271 c0 -6 5 -13 10 -16 17 -11 12 -116 -7 -137 -15 -17 -13
-18 49 -18 47 0 69 4 78 15 16 19 5 34 -12 17 -7 -7 -25 -12 -40 -12 -25 0
-28 4 -28 30 0 27 3 30 27 28 18 -2 28 2 31 13 2 12 -4 15 -28 11 -27 -4 -30
-2 -30 22 0 31 24 44 50 28 19 -12 30 -6 30 15 0 9 -17 13 -65 13 -36 0 -65
-4 -65 -9z"/>
</g>
</svg>
