<svg version="1.1" id="Layer_1" xmlns="http://www.w3.org/2000/svg" xmlns:xlink="http://www.w3.org/1999/xlink" x="0px" y="0px"
	 width="100%" viewBox="0 0 816 352" enable-background="new 0 0 816 352" xml:space="preserve">
<path fill="#000000" opacity="1.000000" stroke="none" 
	d="
M707.744751,244.896042 
	C698.871155,242.312622 696.739746,229.662598 698.024475,220.586761 
	C699.617432,209.332642 703.790833,199.037064 710.198608,189.741440 
	C712.357605,186.609436 711.908691,184.510056 709.777710,181.862808 
	C707.569885,179.120117 705.689453,181.331161 703.573792,181.784332 
	C692.398621,184.178024 689.734131,191.572769 688.847168,202.247604 
	C687.124512,222.979813 684.972778,243.645477 685.188721,264.485474 
	C685.254456,270.826935 685.499756,277.107727 687.045410,283.301147 
	C687.472473,285.012238 687.936646,287.213593 685.588684,287.995789 
	C683.134888,288.813202 681.889282,286.985107 681.080505,285.072784 
	C678.497559,278.965729 678.455994,272.377625 677.995117,265.950226 
	C677.159790,254.299698 678.388184,242.673203 679.367310,231.066116 
	C680.401001,218.812988 681.555969,206.570114 682.622192,194.319641 
	C682.705200,193.365707 682.506348,192.387222 682.392273,190.761124 
	C678.448486,192.143936 674.896606,193.383438 671.348633,194.634384 
	C657.697632,199.447556 644.060974,204.310944 629.946533,207.641312 
	C627.685974,208.174698 625.376221,208.647232 623.066589,208.795395 
	C617.602722,209.145981 613.460327,206.094040 612.743774,200.778030 
	C611.650146,192.664551 613.409668,184.909332 616.658997,177.468796 
	C617.439331,175.681946 618.955017,174.608444 620.699768,173.943710 
	C622.058594,173.425995 623.536499,172.641342 624.934021,173.853821 
	C626.494019,175.207153 626.116333,176.833817 625.367859,178.419373 
	C622.798279,183.862854 620.869385,189.501495 619.787170,195.442001 
	C618.706848,201.372253 620.524292,203.502853 626.253296,202.440521 
	C645.192627,198.928604 662.831604,191.347214 680.831726,184.893951 
	C683.109375,184.077362 683.627441,182.399948 683.923340,180.284866 
	C685.764221,167.126236 687.702942,153.981339 689.567017,140.825882 
	C691.409912,127.820496 694.039124,114.957993 697.007202,102.180161 
	C697.972534,98.024033 696.738525,97.265778 693.020142,97.266960 
	C678.693237,97.271523 664.365662,97.126923 650.039795,96.930977 
	C646.390808,96.881065 642.734375,96.549202 639.106018,96.132378 
	C636.926514,95.881996 634.586426,95.178284 634.073364,92.711166 
	C633.480591,89.860809 636.141113,89.159409 637.993408,88.320007 
	C640.075134,87.376610 642.375122,86.407021 644.699890,87.660774 
	C648.533569,89.728294 652.682678,89.784592 656.862000,89.800873 
	C669.525024,89.850197 682.189514,89.828720 694.850281,90.030296 
	C698.455078,90.087685 700.121338,88.890442 701.036194,85.235672 
	C704.312134,72.148445 708.335999,59.281185 714.166748,47.058567 
	C714.954346,45.407764 715.819763,43.772446 716.841980,42.260284 
	C718.398438,39.957851 719.748413,36.926594 723.077393,37.268375 
	C725.283630,37.494877 725.767700,39.986679 726.309509,41.897438 
	C727.147156,44.851467 727.974792,47.758865 724.139648,49.561394 
	C723.085205,50.056969 722.255371,51.455349 721.747864,52.624168 
	C716.578857,64.529770 712.918030,76.933434 709.310669,89.573814 
	C712.967529,90.401855 716.237915,90.664726 719.557556,90.662331 
	C739.714172,90.647766 759.870789,90.651222 780.027283,90.695267 
	C782.938110,90.701622 786.095398,90.301346 788.144348,93.884987 
	C784.906860,97.363541 780.486267,97.092834 776.602417,97.139023 
	C755.777710,97.386665 734.945862,97.490730 714.123718,97.171265 
	C708.785583,97.089363 706.544006,98.628044 705.377991,103.875465 
	C700.077393,127.729240 696.274963,151.840088 692.405396,175.943527 
	C692.226624,177.056931 692.382446,178.224045 692.382446,179.763062 
	C697.460327,178.993988 701.672485,176.699936 706.048645,174.917694 
	C707.521851,174.317703 707.458252,172.869034 707.783508,171.571289 
	C710.040833,162.563065 716.786926,156.360458 724.912964,155.709793 
	C734.602478,154.933945 741.627563,159.394104 745.535706,168.902542 
	C747.122986,172.764389 748.159546,176.765686 748.370361,180.979950 
	C748.652588,186.619980 749.490723,187.396530 755.638977,186.608124 
	C771.683533,184.550751 787.297607,180.573944 802.726196,175.774933 
	C804.993469,175.069717 808.416443,172.273438 809.660645,175.765106 
	C810.960449,179.412750 806.387146,179.294601 804.265503,180.007156 
	C787.235168,185.726868 770.110229,191.213379 752.149963,193.221695 
	C749.007812,193.573059 748.464478,195.179352 748.023621,197.696274 
	C745.673645,211.111115 740.323730,223.211411 731.127014,233.313309 
	C725.027344,240.013321 718.393494,246.238129 707.744751,244.896042 
M740.010803,194.313858 
	C733.485779,192.534683 726.530457,193.105377 720.115723,190.526550 
	C718.291077,189.793030 717.276978,191.827911 716.332336,193.177765 
	C712.293152,198.949066 709.074463,205.151276 707.178406,211.941422 
	C705.213928,218.977158 703.155151,226.040497 705.297791,233.477127 
	C706.710449,238.380432 708.972900,239.835175 713.784790,238.338791 
	C715.657104,237.756546 717.523804,236.822662 719.091614,235.646942 
	C732.630493,225.493759 738.586304,211.318024 740.010803,194.313858 
M727.534973,179.023117 
	C726.509644,180.661911 724.400940,181.556000 724.180481,183.816467 
	C725.400146,185.189056 727.096252,185.340500 728.675964,185.734116 
	C732.712280,186.739883 737.730896,188.596252 740.607117,185.822784 
	C743.700134,182.840393 740.924072,177.925934 739.927429,174.012329 
	C738.292114,167.591232 734.439270,163.068634 727.604797,161.680725 
	C723.082275,160.762329 717.572021,163.737030 715.390076,168.440582 
	C713.454895,172.612152 714.260376,176.304962 717.413635,179.925201 
	C719.885620,177.911514 721.906433,176.209015 723.990234,174.587402 
	C725.414612,173.478989 727.204346,172.994781 728.593384,174.210861 
	C730.244141,175.656128 729.152527,177.211075 727.534973,179.023117 
z"/>
<path fill="#000000" opacity="1.000000" stroke="none" 
	d="
M39.113865,91.253716 
	C36.388100,92.220192 34.068737,93.163963 31.684317,93.895760 
	C29.735121,94.493965 27.632715,94.855545 26.362875,92.645729 
	C25.154583,90.543015 26.269690,88.778587 27.604956,87.214279 
	C29.623430,84.849586 32.444679,83.711693 35.238506,82.649544 
	C47.859840,77.851189 60.796619,74.091011 74.070259,71.636948 
	C78.587738,70.801750 81.148804,68.858444 82.888588,64.351921 
	C87.682106,51.935444 92.574753,39.508793 99.439339,28.025614 
	C101.246696,25.002239 103.090187,21.458786 108.116615,23.597128 
	C102.052040,38.314987 96.089523,52.785172 89.752197,68.164963 
	C108.648697,66.039520 126.504044,63.378868 144.548416,62.553638 
	C162.249283,61.744125 179.931137,59.532223 198.472015,61.790989 
	C196.506882,65.719353 194.202911,66.246895 191.633728,66.328110 
	C182.314896,66.622665 172.998337,67.025269 163.677399,67.208473 
	C138.796204,67.697533 114.332146,71.353722 90.076485,76.673157 
	C87.676094,77.199577 86.005852,78.204536 85.052719,80.813698 
	C73.630066,112.082657 62.582172,143.480011 52.285179,175.138992 
	C51.987190,176.055191 51.488758,177.014893 52.352238,178.508392 
	C58.874557,178.786499 65.538139,177.449097 72.234703,176.674576 
	C89.239983,174.707764 106.249504,172.772339 123.237114,170.661652 
	C127.676758,170.110016 132.045746,168.979431 136.440201,168.080551 
	C137.754135,167.811783 139.139740,167.318222 140.148697,168.556656 
	C141.294907,169.963547 140.566788,171.472656 139.840271,172.750946 
	C138.362320,175.351364 136.127487,176.949417 133.067261,177.293671 
	C112.254852,179.635040 91.443939,181.989639 70.632767,184.341995 
	C64.355156,185.051575 58.077671,185.762451 51.801315,186.483078 
	C49.218773,186.779602 47.824131,188.109695 46.969067,190.721710 
	C38.217728,217.455048 30.010239,244.332092 24.615238,271.985199 
	C22.881714,280.870728 26.335400,284.344727 35.344048,283.105377 
	C64.809593,279.051758 93.217796,270.810516 121.342735,261.456879 
	C126.722824,259.667603 131.847488,257.234894 136.748718,254.360458 
	C137.467056,253.939178 138.151566,253.400528 138.927170,253.146988 
	C142.157074,252.091141 145.286987,252.772369 146.707703,255.771027 
	C148.097153,258.703705 144.871536,259.676239 142.982224,260.699127 
	C130.768967,267.311340 117.706367,271.871765 104.455933,275.794952 
	C87.402000,280.844269 70.266251,285.657410 52.698132,288.677063 
	C45.631451,289.891693 38.518394,290.600220 31.336155,290.289154 
	C23.437933,289.947083 17.550392,284.096222 17.725569,276.063965 
	C18.006371,263.188416 21.383217,250.772293 24.248283,238.322052 
	C27.716120,223.252472 31.800247,208.334366 36.408428,193.565445 
	C36.844212,192.168777 36.999813,190.684692 37.345966,188.935638 
	C32.926991,187.742615 28.921200,189.779343 24.849043,189.478088 
	C22.891466,189.333267 20.391148,190.074524 20.057877,187.303177 
	C19.767118,184.885391 21.488771,183.219421 23.856468,182.770432 
	C28.101816,181.965363 32.370331,181.185074 36.665516,180.777573 
	C39.147011,180.542145 40.739281,179.720520 41.519295,177.335007 
	C51.971886,145.367813 63.650520,113.841858 75.668182,82.437546 
	C75.830826,82.012527 75.688469,81.470772 75.688469,80.320320 
	C63.353622,83.461372 51.288898,86.823143 39.113865,91.253716 
z"/>
<path fill="#000000" opacity="1.000000" stroke="none" 
	d="
M572.670776,137.738403 
	C576.296997,133.758545 580.220093,131.120163 585.507324,131.481384 
	C586.960632,131.580658 588.688110,131.658035 589.075989,133.561768 
	C589.391968,135.112625 588.261292,136.005844 587.132141,136.767136 
	C583.243286,139.389175 579.609741,142.292145 576.772583,146.079071 
	C573.575684,150.346207 572.323425,154.921158 574.321350,160.137939 
	C576.212952,165.077072 577.418762,170.289795 580.041992,174.827759 
	C582.028259,175.266144 583.492859,174.341843 585.054993,173.847000 
	C586.694519,173.327667 588.500854,172.861313 589.396362,174.873932 
	C590.438477,177.216095 588.258118,177.589508 586.878052,178.317474 
	C581.498474,181.155197 581.455200,181.276657 584.787170,187.009842 
	C591.413940,182.607925 597.955383,178.089798 604.678772,173.860901 
	C608.760071,171.293839 613.107483,169.145889 617.364685,166.864380 
	C619.633972,165.648239 621.996704,165.072754 624.487610,166.373779 
	C624.790405,168.784027 622.785095,169.021912 621.395447,169.659836 
	C609.282776,175.220215 599.114441,183.544205 589.093628,192.115509 
	C587.081665,193.836395 586.880615,195.761047 587.539490,197.931152 
	C590.451111,207.521637 591.914429,217.356720 592.895142,227.304291 
	C595.428711,253.001434 578.974731,277.757080 554.168274,283.491028 
	C539.981445,286.770294 529.414734,276.800049 531.173767,262.339203 
	C533.330017,244.613007 542.826965,230.736206 553.761963,217.526718 
	C560.371033,209.543045 567.924561,202.467667 575.756470,195.738068 
	C579.921021,192.159714 577.076843,189.033722 575.756165,185.984589 
	C574.245422,182.496689 571.741516,185.137405 569.858704,185.868652 
	C548.595032,194.126663 527.253845,202.143738 505.079010,207.686569 
	C503.147858,208.169281 501.160034,208.493912 499.178528,208.693634 
	C492.726105,209.344025 488.172302,205.515610 487.710632,199.091660 
	C487.604492,197.614578 487.695007,196.123367 487.695007,194.694763 
	C485.200745,193.737595 484.005310,195.530411 482.593872,196.435822 
	C464.930756,207.766617 447.602356,219.651382 428.652710,228.838333 
	C421.894012,232.115036 414.951721,234.906631 407.575958,236.483612 
	C396.335114,238.886963 390.043640,232.921722 391.959137,221.500031 
	C393.365692,213.112885 395.662598,204.947388 398.829407,197.038239 
	C399.425140,195.550354 399.912994,194.019287 400.130157,192.286362 
	C392.978088,198.800186 386.568542,205.993042 378.970306,211.903015 
	C374.623077,215.284348 370.175476,218.530731 365.221710,220.951981 
	C359.209259,223.890640 354.888855,221.378601 354.739075,214.655945 
	C354.475647,202.835327 360.021545,192.824814 365.363312,182.835220 
	C366.681732,180.369629 368.573883,178.174957 370.407379,176.031128 
	C372.122437,174.025772 374.397858,172.425522 376.845673,174.619720 
	C379.187225,176.718674 377.569244,178.957397 376.022644,180.748764 
	C370.300812,187.376114 365.681000,194.641205 362.876953,202.974854 
	C362.136902,205.174255 361.624725,207.450211 361.004639,209.690125 
	C360.548096,211.339279 360.121796,213.075577 361.782135,214.254272 
	C363.422089,215.418457 365.054596,214.480255 366.429810,213.595963 
	C375.720581,207.621872 384.206573,200.697998 391.555115,192.394165 
	C395.748627,187.655518 400.149841,183.098694 404.520905,178.520508 
	C405.663635,177.323669 406.948395,176.204269 408.338715,175.316910 
	C410.017487,174.245407 411.867706,173.190552 413.818817,174.904190 
	C415.655121,176.517029 414.671173,178.296844 413.961761,179.936371 
	C411.250427,186.202454 408.299133,192.368805 405.729828,198.691223 
	C402.721710,206.093430 400.051971,213.620697 398.809540,221.581818 
	C397.805084,228.018219 399.907593,230.451965 406.298096,229.677994 
	C411.478455,229.050598 416.260223,227.014633 420.944305,224.849182 
	C444.477264,213.969955 465.843903,199.404129 487.647522,185.579987 
	C489.381531,184.480576 489.918030,182.814621 490.589752,181.119598 
	C491.199554,179.580704 491.632202,177.900146 492.558380,176.571655 
	C495.212830,172.763992 499.292236,172.620926 502.264008,176.101852 
	C504.674316,175.915375 506.361145,174.044403 508.530304,173.266876 
	C510.152344,172.685455 511.981171,172.157257 512.982300,173.972977 
	C513.960449,175.747086 512.225098,176.661575 511.043152,177.479477 
	C508.166779,179.469742 505.211914,181.346466 502.291168,183.272766 
	C497.021759,186.748062 494.179504,193.440689 495.203949,199.548904 
	C495.890533,203.642502 498.879395,202.829849 501.388977,202.432266 
	C509.462524,201.153198 517.344543,198.946396 525.019165,196.225021 
	C539.611511,191.050659 554.026733,185.377899 568.600586,180.149384 
	C572.338318,178.808411 572.895630,177.123779 571.622375,173.497543 
	C568.774414,165.386383 565.251404,157.340149 567.517700,148.294540 
	C568.475586,144.471390 570.157898,141.139374 572.670776,137.738403 
M586.614990,225.853302 
	C585.566711,217.344894 584.345581,208.878815 580.728271,200.248962 
	C577.609436,203.211563 574.929688,205.659622 572.359497,208.217804 
	C565.988098,214.559418 559.632874,220.911377 554.367371,228.258804 
	C547.033691,238.492065 540.721558,249.208344 538.700745,261.874329 
	C537.879089,267.023865 537.398132,272.610382 541.888367,276.283875 
	C545.964844,279.618927 550.784851,277.311829 555.246887,276.156982 
	C555.885254,275.991791 556.482788,275.665680 557.095764,275.405701 
	C575.256042,267.703522 586.747009,248.782715 586.614990,225.853302 
z"/>
<path fill="#000000" opacity="1.000000" stroke="none" 
	d="
M321.954956,275.761414 
	C317.571960,295.995911 313.651428,315.874481 313.255646,336.259766 
	C313.216278,338.286804 313.024384,340.831909 310.473328,340.799744 
	C307.536835,340.762756 306.988525,337.860992 306.831055,335.615021 
	C306.200745,326.624268 306.897980,317.684235 308.115753,308.753357 
	C312.904999,273.629486 321.913879,239.383484 329.563965,204.854218 
	C329.741852,204.051254 329.765930,203.214249 329.942505,201.700745 
	C327.063232,204.555145 324.563385,206.963669 322.140900,209.447647 
	C313.872650,217.925720 305.301056,226.071213 295.516449,232.796860 
	C293.045837,234.495071 290.521240,237.342743 287.017212,235.423523 
	C283.347137,233.413345 283.663116,229.654678 283.608795,226.127563 
	C283.492157,218.554688 286.627991,211.896790 289.359070,205.110367 
	C290.267090,202.854004 291.876221,200.862152 292.137787,197.899643 
	C282.745697,202.367386 273.709045,206.877365 264.497345,210.995743 
	C252.335983,216.432861 240.046417,221.565704 226.474731,222.399765 
	C216.840805,222.991806 207.428055,221.877701 198.817474,217.464127 
	C194.597687,215.301178 191.910172,216.247910 188.696991,219.045090 
	C180.895630,225.836411 172.349838,231.647415 163.604660,237.158096 
	C162.759430,237.690704 161.939728,238.294983 161.031799,238.690720 
	C158.827698,239.651367 156.130890,241.785233 154.375427,238.925201 
	C152.465958,235.814240 155.869461,234.732895 157.826447,233.459595 
	C167.876724,226.920456 177.549622,219.903854 186.863541,211.298401 
	C181.847885,206.841705 177.122391,202.502472 173.381744,197.234238 
	C165.517166,186.157944 161.401337,173.945114 161.697983,160.316742 
	C161.726837,158.991028 161.765823,157.626434 162.092926,156.355240 
	C162.617630,154.316086 162.907349,151.643524 165.913147,152.069153 
	C168.896408,152.491531 168.510742,155.022217 168.389252,157.204865 
	C167.335922,176.127457 175.735916,190.499466 189.890610,202.179520 
	C192.671890,204.474518 194.636276,204.772385 197.425430,201.880539 
	C213.560684,185.151184 228.135391,167.247726 239.835831,147.100357 
	C240.421295,146.092209 240.954895,145.044647 241.632126,144.101212 
	C242.726364,142.576859 243.417694,139.968826 246.041626,141.242432 
	C248.265335,142.321793 248.645752,144.658051 248.124237,146.891174 
	C247.792496,148.311798 246.998932,149.650070 246.277390,150.950317 
	C235.289078,170.752060 221.434418,188.366028 205.448273,204.348297 
	C204.506454,205.289871 203.539703,206.207626 202.627884,207.177200 
	C202.432358,207.385101 202.425034,207.770004 202.212479,208.455765 
	C212.119400,213.369949 222.722351,214.211533 233.233704,212.159607 
	C255.999359,207.715515 276.753845,197.754623 297.254974,187.289978 
	C299.462006,186.163406 300.704468,184.212097 301.971161,182.260086 
	C304.063690,179.035477 306.311279,175.936646 309.209747,173.380722 
	C312.583710,170.405533 316.431274,169.078751 319.756989,172.872192 
	C322.165405,175.619308 325.935547,171.878250 327.935974,175.602493 
	C320.605865,181.130432 328.193695,187.555710 326.148712,194.549042 
	C331.353088,189.948288 333.796417,185.292618 334.626251,179.622238 
	C335.153564,176.018967 336.113770,172.466019 337.080383,168.945572 
	C337.563690,167.185333 338.420044,165.337585 340.512390,165.021835 
	C342.875977,164.665146 344.013763,166.499878 345.175018,168.158279 
	C347.614319,171.641815 347.185730,175.180130 346.038727,179.083679 
	C336.708344,210.837875 329.687897,243.172638 321.954956,275.761414 
M289.374115,226.146118 
	C289.291809,230.043106 291.218079,229.416122 293.350830,227.819946 
	C304.840332,219.221054 314.904297,209.175613 323.986908,197.927261 
	C319.380737,193.526947 324.303192,186.749100 319.164673,182.290527 
	C314.315186,185.190979 308.159821,186.704010 304.913696,191.637329 
	C298.062134,202.050125 291.823517,212.889755 289.374115,226.146118 
z"/>
<path fill="#000000" opacity="1.000000" stroke="none" 
	d="
M503.602295,141.917313 
	C505.369293,139.773529 507.222931,138.689880 509.351166,140.502090 
	C511.536652,142.363068 512.461121,144.895966 511.242310,147.646439 
	C510.137543,150.139633 508.322021,152.437317 505.371887,152.304550 
	C502.652557,152.182190 502.572235,149.390091 502.062988,147.377563 
	C501.586456,145.494492 502.436615,143.811844 503.602295,141.917313 
z"/>
<path fill="#000000" opacity="1.000000" stroke="none" 
	d="
M627.716431,150.698334 
	C626.566162,148.323975 626.299744,146.156052 627.119873,144.105087 
	C628.125916,141.589340 629.655457,138.959274 632.894043,140.011795 
	C636.032288,141.031708 636.746582,143.952316 636.102844,146.943222 
	C635.221252,151.038895 631.249878,152.920380 627.716431,150.698334 
z"/>
</svg>