<svg version="1.1" id="Layer_1" xmlns="http://www.w3.org/2000/svg" xmlns:xlink="http://www.w3.org/1999/xlink" x="0px" y="0px"
	 width="100%" viewBox="0 0 816 400" enable-background="new 0 0 816 400" xml:space="preserve">
<path fill="#000000" opacity="1.000000" stroke="none" 
	d="
M786.491211,182.632843 
	C774.933289,186.054611 763.703003,189.165558 752.064575,190.255066 
	C748.862793,190.554794 748.431152,192.368408 747.997070,194.818710 
	C745.745667,207.526733 740.708496,218.983063 732.421875,228.948944 
	C728.328369,233.871979 723.687988,238.173477 717.758728,240.741699 
	C708.492310,244.755447 701.166382,241.030045 698.749390,231.212784 
	C695.881714,219.565369 699.149658,208.776627 703.749817,198.294724 
	C705.614624,194.045471 707.982483,189.964935 710.553528,186.094711 
	C712.490295,183.179474 711.290100,181.175140 709.717224,178.890381 
	C707.880188,176.221863 705.991821,178.102158 703.997314,178.579865 
	C692.942627,181.227676 689.704590,188.351761 688.831787,199.413513 
	C687.195557,220.149078 685.053406,240.819534 685.161194,261.653595 
	C685.193176,267.829376 685.552429,273.936005 686.980835,279.972961 
	C687.418762,281.823822 688.142334,284.257416 685.460083,285.041656 
	C682.782776,285.824432 681.526489,283.741760 680.717529,281.648193 
	C678.398743,275.647491 678.253601,269.231537 677.949036,262.976349 
	C677.162354,246.819580 678.983521,230.747330 680.406067,214.674698 
	C681.177368,205.958923 681.901733,197.238983 682.706787,187.825485 
	C671.790405,191.532181 661.613342,195.066101 651.382812,198.437744 
	C642.699524,201.299484 634.064026,204.378433 624.927124,205.581116 
	C617.129761,206.607468 612.128418,202.485062 612.262756,194.767380 
	C612.376160,188.247375 613.601074,181.859985 615.982666,175.764221 
	C616.507874,174.419891 617.422424,173.041092 618.537231,172.156235 
	C620.338074,170.726746 622.603394,169.157150 624.864929,170.725067 
	C627.221130,172.358612 625.700623,174.655594 624.877441,176.599945 
	C622.666870,181.821655 620.682678,187.096252 619.733826,192.729965 
	C618.747559,198.585983 620.575256,200.473846 626.508972,199.372665 
	C640.484375,196.779160 653.750183,191.867172 667.005005,186.921234 
	C670.436279,185.640854 673.819763,184.145309 677.351501,183.242844 
	C681.777893,182.111771 683.996765,179.767548 684.456604,175.056625 
	C687.041199,148.576920 691.831970,122.448807 697.402039,96.453796 
	C697.464600,96.162041 697.281128,95.817574 697.187622,95.381950 
	C695.657104,93.644279 693.519165,94.355545 691.628174,94.342468 
	C674.981384,94.227402 658.324585,94.641617 641.702393,93.349892 
	C638.445557,93.096794 634.564148,93.466553 634.040222,88.869751 
	C633.798218,86.746651 640.082214,83.122749 643.113831,84.115639 
	C659.746094,89.562881 676.850464,85.543594 693.654053,87.029404 
	C698.506165,87.458443 700.398804,85.464874 701.444275,80.965775 
	C704.311768,68.625786 708.288330,56.620918 713.718323,45.140522 
	C714.714233,43.035011 715.735168,40.912846 717.016174,38.978172 
	C718.456177,36.803154 719.797852,33.995049 722.873169,34.157063 
	C725.172607,34.278202 725.780029,36.690205 726.263733,38.607269 
	C726.987122,41.473846 728.198242,44.568199 724.361511,46.384422 
	C723.076050,46.992939 722.411926,48.200542 721.879578,49.420044 
	C716.746643,61.177868 713.061279,73.409729 709.610229,85.906891 
	C712.569275,87.758972 715.567810,87.633072 718.500244,87.638405 
	C738.991821,87.675682 759.483521,87.657791 779.974976,87.706932 
	C782.875305,87.713882 786.037415,87.277908 788.138916,90.885353 
	C784.474487,94.311516 779.871643,94.165833 775.582947,94.201241 
	C755.255615,94.369095 734.926208,94.298355 714.597595,94.310562 
	C707.007080,94.315125 707.110657,94.337387 705.290405,101.937752 
	C699.749573,125.073700 696.427979,148.609619 692.531067,172.042191 
	C692.289612,173.493942 692.042603,174.998199 693.329712,176.493912 
	C697.785583,175.787811 701.722839,173.589645 705.869141,172.032974 
	C707.585876,171.388428 707.460510,169.750183 707.798706,168.286850 
	C709.656372,160.249603 716.275696,153.833710 723.647766,152.785690 
	C732.662292,151.504166 739.998230,155.244278 744.375793,163.391098 
	C746.611450,167.551727 747.858521,172.043243 748.292847,176.710571 
	C748.974426,184.034470 749.510559,184.629333 756.898193,183.519852 
	C772.384583,181.194107 787.565186,177.558502 802.500305,172.825836 
	C804.830688,172.087372 808.483032,169.084366 809.712036,173.022522 
	C810.722412,176.259766 806.241943,176.307129 804.005859,177.114502 
	C798.380554,179.145660 792.594788,180.732559 786.491211,182.632843 
M740.411682,191.991089 
	C739.316345,189.902267 737.295227,190.288940 735.551819,190.368820 
	C732.170166,190.523743 728.914551,189.784286 725.690552,189.079758 
	C717.894592,187.376190 717.726257,187.165894 713.831604,194.066605 
	C707.538879,205.216431 702.920044,216.889252 705.326233,230.089859 
	C706.309448,235.484177 709.222473,236.972458 714.417419,235.061874 
	C718.553162,233.540833 721.994751,230.925568 724.945007,227.683441 
	C733.975647,217.759354 738.805542,205.945328 740.411682,191.991089 
M732.971558,183.654144 
	C734.796997,183.711288 736.622131,183.785233 738.447998,183.820587 
	C740.104248,183.852661 741.215271,183.353989 741.617310,181.446762 
	C742.901917,175.352844 737.858765,163.554779 732.490173,160.421066 
	C726.996338,157.214249 720.771667,158.303574 716.846252,163.158630 
	C713.406677,167.412842 713.544067,171.689331 717.552185,176.339691 
	C719.880188,174.632767 722.195801,172.823441 724.631592,171.193802 
	C725.947205,170.313599 727.642151,170.117508 728.774109,171.343491 
	C730.002014,172.673279 729.192078,174.085724 728.194092,175.345200 
	C726.883911,176.998718 724.882141,178.174088 724.458862,180.719818 
	C724.910339,181.074005 725.350647,181.640244 725.914856,181.822479 
	C727.959473,182.482819 730.045654,183.014267 732.971558,183.654144 
z"/>
<path fill="#000000" opacity="1.000000" stroke="none" 
	d="
M25.185347,231.361374 
	C28.739998,215.920547 33.310738,201.171432 37.665569,185.573654 
	C32.942436,185.894333 28.882614,186.154892 24.825455,186.451782 
	C22.799637,186.600037 20.389874,186.988998 20.031305,184.293259 
	C19.706387,181.850510 21.463154,180.242371 23.823265,179.771851 
	C27.736515,178.991714 31.675848,178.017807 35.631767,177.871613 
	C39.269146,177.737167 40.873188,176.265686 41.962543,172.932556 
	C51.014675,145.235596 61.084225,117.898994 71.419670,90.659187 
	C73.001328,86.490593 74.570274,82.317169 76.575386,77.006325 
	C69.889587,78.832870 64.170898,80.215866 58.567753,81.968300 
	C50.311443,84.550529 42.141975,87.409676 33.925797,90.121399 
	C31.314938,90.983101 28.081503,92.947899 26.392220,89.533752 
	C24.628017,85.968185 27.554590,83.525475 30.401688,82.041382 
	C39.764008,77.161110 49.983147,74.629280 60.060036,71.753662 
	C63.575893,70.750359 67.156158,69.432205 70.740433,69.319328 
	C78.723877,69.067902 81.984955,64.350563 84.503059,57.576031 
	C88.560104,46.661232 92.945076,35.829220 98.964066,25.778597 
	C99.731331,24.497408 100.554382,23.231634 101.497322,22.077822 
	C102.950432,20.299746 105.012238,18.721237 107.078621,20.216869 
	C109.564651,22.016249 106.724373,23.621346 106.054314,25.271931 
	C100.765244,38.300533 95.464134,51.324242 89.811035,65.224022 
	C126.193199,60.461910 161.720383,56.888309 198.010101,58.029301 
	C197.074997,63.032089 194.380600,63.224548 191.715134,63.320099 
	C182.561249,63.648239 173.407486,64.055908 164.250061,64.194710 
	C139.185974,64.574608 114.575279,68.404358 90.134796,73.636406 
	C87.500336,74.200378 85.893280,75.424438 84.885071,78.180740 
	C73.675148,108.827049 63.011448,139.661194 52.751583,170.636398 
	C52.293316,172.019943 51.569122,173.402893 52.072723,175.238007 
	C56.990135,176.561371 61.912270,174.918991 66.730904,174.421097 
	C85.410629,172.491013 104.040276,170.062057 122.670822,167.680069 
	C127.275551,167.091354 131.816879,165.997375 136.379944,165.098068 
	C137.695648,164.838776 139.067169,164.350555 140.106247,165.551376 
	C141.312836,166.945801 140.536240,168.430832 139.880280,169.744614 
	C138.499817,172.509491 136.028717,173.914215 133.094284,174.260376 
	C115.595200,176.324753 98.087547,178.317184 80.579475,180.304703 
	C70.999840,181.392197 61.412125,182.408463 51.831554,183.487915 
	C49.265217,183.777069 47.853218,185.135925 46.995274,187.745224 
	C38.312340,214.153030 30.301125,240.741745 24.744259,268.011688 
	C24.382923,269.784912 24.271545,271.656250 24.363174,273.465790 
	C24.634758,278.829193 27.598310,281.124146 32.978268,280.461945 
	C56.010399,277.626801 78.356407,271.716309 100.504173,265.073456 
	C113.399422,261.205750 126.419235,257.492096 138.134613,250.497787 
	C139.998184,249.385178 141.963501,249.473892 143.896454,250.304565 
	C145.287109,250.902191 146.722046,251.606140 146.983490,253.291809 
	C147.260422,255.077530 145.925079,256.123169 144.627151,256.783081 
	C139.583359,259.347595 134.599930,262.116852 129.340790,264.157135 
	C103.675568,274.113983 77.156105,281.096954 50.114452,286.086395 
	C45.234051,286.986877 40.163860,286.807678 35.203423,287.335144 
	C21.112492,288.833405 16.030859,278.041382 17.934809,266.410461 
	C19.841454,254.763107 22.219305,243.210739 25.185347,231.361374 
z"/>
<path fill="#000000" opacity="1.000000" stroke="none" 
	d="
M567.903259,143.383606 
	C570.289062,137.280426 573.299377,132.167099 579.331177,129.683319 
	C580.849548,129.058075 582.492615,128.462341 584.099548,128.400101 
	C585.815308,128.333649 588.073853,128.028290 588.913879,130.098389 
	C589.826111,132.346268 587.745667,133.266205 586.340698,134.372345 
	C584.379944,135.916077 582.322754,137.349365 580.457947,139.000565 
	C573.937744,144.773911 571.433289,151.535507 575.216736,159.980530 
	C576.969849,163.893677 578.300354,167.996170 579.733643,171.778595 
	C581.982483,172.297562 583.440186,171.348267 584.988953,170.819290 
	C586.778992,170.207916 588.759033,169.502319 589.612976,171.939545 
	C590.394409,174.169617 588.345276,174.642395 586.889709,175.365082 
	C581.490784,178.045593 581.449219,178.208496 584.786011,183.874985 
	C587.949829,183.017853 589.992859,180.438950 592.520813,178.633484 
	C600.408447,173.000168 608.781921,168.202789 617.416992,163.840668 
	C619.698059,162.688385 622.054810,162.071594 624.536743,163.390900 
	C624.787720,165.796021 622.807556,166.003647 621.407043,166.657913 
	C609.344116,172.293182 599.092346,180.497604 589.133484,189.157974 
	C587.141968,190.889801 586.940918,192.747772 587.595886,194.960251 
	C590.391602,204.404358 591.848145,214.079849 592.911743,223.851883 
	C596.085388,253.008560 574.593811,277.762238 552.159607,280.711060 
	C538.257812,282.538391 528.903748,273.009735 530.985596,258.604523 
	C532.419128,248.685608 536.276978,239.742462 541.421387,231.280945 
	C549.908752,217.321075 561.156067,205.773270 573.218140,194.921234 
	C579.379028,189.378342 579.307129,189.187149 574.508728,181.190903 
	C565.004028,184.765976 555.458618,188.557343 545.773987,191.951828 
	C531.338318,197.011612 517.023438,202.604050 501.889984,205.268997 
	C491.811035,207.043884 488.152496,203.691940 487.646790,193.407715 
	C487.615326,192.767349 487.470673,192.132568 487.330719,191.162888 
	C484.278168,191.794495 482.169281,193.742203 479.866028,195.232117 
	C463.082977,206.088715 446.499695,217.276718 428.457550,226.027817 
	C422.002472,229.158737 415.357788,231.785004 408.336151,233.385010 
	C396.218506,236.146210 389.884460,230.213516 391.955414,217.918137 
	C393.593384,208.193512 396.841400,198.928757 399.584534,189.011765 
	C395.557709,193.197693 391.641144,197.497070 387.478546,201.543365 
	C381.006195,207.834808 374.003876,213.498199 365.939056,217.651276 
	C359.124237,221.160614 354.419006,218.524872 354.760925,210.995453 
	C355.427551,196.316681 361.759735,183.800903 370.810852,172.545090 
	C372.366516,170.610474 374.670990,169.403610 376.882019,171.430756 
	C379.136566,173.497864 377.842316,175.719055 376.231659,177.589951 
	C370.414795,184.346786 365.670074,191.726074 362.883240,200.259918 
	C362.315674,201.997894 361.692719,203.731094 361.310455,205.512665 
	C360.905731,207.398865 359.747192,209.626862 361.705170,211.118027 
	C363.891327,212.782974 365.845123,210.933807 367.591949,209.830521 
	C374.522095,205.453537 380.807037,200.219696 386.569458,194.426254 
	C392.440460,188.523682 397.959778,182.272812 403.733398,176.270950 
	C405.333069,174.608002 407.203552,173.162872 409.111359,171.853195 
	C410.504181,170.897018 412.124847,170.459305 413.738007,171.742538 
	C415.463440,173.115067 414.906036,174.733536 414.251007,176.266602 
	C412.942780,179.328598 411.434814,182.305084 410.118958,185.364029 
	C405.515289,196.065689 400.752808,206.718231 399.024689,218.387833 
	C397.975952,225.469727 400.718506,228.142120 407.794983,226.420441 
	C419.411102,223.594269 429.819153,217.873306 440.084412,212.016205 
	C455.568420,203.181412 470.569855,193.545425 485.564362,183.903259 
	C488.247711,182.177719 490.146240,180.289215 490.887817,177.122116 
	C491.381958,175.011719 492.425293,172.982422 494.412689,171.839722 
	C497.271851,170.195786 500.286194,168.432571 501.885101,173.148270 
	C505.960327,173.154358 508.787872,167.372406 513.753784,171.412827 
	C511.290833,175.433289 507.236969,177.324997 503.607941,179.240356 
	C497.268982,182.585999 495.178802,187.779343 495.189575,194.395935 
	C495.197418,199.191757 496.435883,200.310410 501.301086,199.466675 
	C508.854553,198.156784 516.285767,196.251999 523.488342,193.662460 
	C538.526794,188.255753 553.448730,182.524734 568.488098,177.120667 
	C572.149841,175.804886 572.891357,174.056839 571.571228,170.442017 
	C568.436035,161.857559 564.955078,153.239380 567.903259,143.383606 
M567.562378,210.061783 
	C557.532471,220.185883 548.928528,231.340485 543.136536,244.455124 
	C540.166870,251.179291 537.825562,258.101837 538.358765,265.642426 
	C538.843201,272.494507 541.779602,275.322113 548.593140,274.724243 
	C558.428650,273.861176 566.109802,268.564606 572.472412,261.511444 
	C586.196350,246.298019 589.401001,228.500427 584.313171,208.987976 
	C583.342102,205.263458 583.056213,201.229797 579.593628,196.398193 
	C575.482544,201.085678 571.768860,205.320099 567.562378,210.061783 
z"/>
<path fill="#000000" opacity="1.000000" stroke="none" 
	d="
M329.385101,202.181854 
	C329.522461,201.200333 329.570160,200.546204 329.620819,199.850967 
	C328.145447,199.083755 327.906616,200.521851 327.390076,201.077850 
	C317.621338,211.592987 307.403961,221.618286 295.604889,229.874115 
	C293.114410,231.616699 290.527344,234.321075 287.073273,232.499084 
	C283.398926,230.560913 283.559845,226.771286 283.527161,223.246078 
	C283.457214,215.702850 286.382507,208.963257 289.255371,202.221527 
	C290.213165,199.973862 291.321228,197.790222 292.919495,194.387451 
	C287.700836,196.974380 283.608398,199.045380 279.479889,201.041794 
	C266.140778,207.492111 252.817673,213.941620 238.322876,217.569229 
	C224.423691,221.047791 210.903763,220.188385 197.905457,214.229813 
	C194.443314,212.642715 192.224442,213.108749 189.524063,215.451828 
	C181.459732,222.449142 172.748093,228.590805 163.634171,234.154465 
	C162.357040,234.934113 161.073517,235.726074 159.717926,236.349075 
	C157.713806,237.270111 155.386017,238.257477 154.017990,235.695282 
	C152.703186,233.232758 154.984833,232.170395 156.644745,231.115204 
	C166.078384,225.118347 175.128036,218.608200 183.523697,211.210083 
	C184.508514,210.342285 185.575119,209.567291 187.055832,208.389847 
	C181.835953,203.950668 177.381424,199.764145 173.777771,194.780060 
	C165.727524,183.645981 161.343124,171.341629 161.685532,157.496231 
	C161.710220,156.497879 161.608337,155.450775 161.872864,154.513077 
	C162.506485,152.266876 162.109146,148.820267 165.656586,149.068832 
	C169.351028,149.327682 168.450562,152.548279 168.348038,154.938126 
	C167.534317,173.905106 176.195862,188.099380 190.532608,199.563507 
	C193.247299,201.734283 194.975311,201.263062 197.242554,198.947128 
	C213.390579,182.452362 227.813965,164.633270 239.504333,144.675751 
	C240.009445,143.813385 240.407486,142.847488 241.069275,142.125992 
	C242.555237,140.506012 242.864578,136.383163 246.262131,138.440613 
	C248.990219,140.092636 248.912888,143.308258 247.371262,146.067734 
	C242.331741,155.088303 236.871384,163.845779 230.733780,172.170578 
	C222.131302,183.838593 212.577469,194.679581 201.729340,205.047821 
	C206.957443,208.076614 212.243958,209.167542 217.662811,209.681335 
	C235.256653,211.349548 251.004913,204.673965 266.818848,198.518600 
	C272.861633,196.166519 278.629242,193.117386 284.601959,190.573044 
	C293.285248,186.874039 300.785004,182.114334 306.189240,173.814804 
	C310.913208,166.559967 313.579895,166.456589 320.908447,170.653061 
	C323.166473,171.946060 326.039062,169.085754 327.968689,172.596725 
	C320.489960,177.964478 328.164734,184.429993 326.288391,191.110855 
	C333.344452,185.918335 334.040802,178.673126 335.599274,171.815781 
	C336.113892,169.551483 336.492676,167.204865 337.391022,165.090210 
	C339.147064,160.956665 342.309723,160.748886 344.821838,164.541595 
	C346.806763,167.538376 347.615173,170.609894 346.537628,174.431015 
	C335.437286,213.794785 325.811432,253.530029 317.747986,293.621063 
	C315.196899,306.304962 313.405518,319.189453 313.285461,332.213135 
	C313.273376,333.523438 313.252319,334.978668 312.704132,336.108948 
	C311.547852,338.493011 309.810760,338.809814 308.157898,336.510223 
	C306.731750,334.526093 306.708160,332.166443 306.623688,329.808289 
	C306.095886,315.073517 308.785950,300.679321 311.180054,286.256897 
	C315.862549,258.048859 323.358032,230.447144 329.385101,202.181854 
M301.150146,218.650223 
	C309.268524,211.231903 317.167053,203.604874 323.831573,194.818680 
	C319.304413,190.619431 324.309021,183.610992 319.136383,179.253021 
	C314.334381,182.257233 308.299744,183.754089 305.084686,188.438690 
	C298.870209,197.493637 293.602264,207.201157 290.527588,217.857452 
	C289.849884,220.206268 288.258118,222.826935 290.434753,225.713318 
	C294.797363,225.004791 297.181458,221.206116 301.150146,218.650223 
z"/>
<path fill="#000000" opacity="1.000000" stroke="none" 
	d="
M443.006378,383.588989 
	C445.723816,380.219543 448.973389,381.481293 451.852875,382.729065 
	C454.742432,383.981201 454.322510,386.297699 453.255524,389.031982 
	C452.218628,391.689178 456.299774,392.741058 456.287689,395.722473 
	C452.062622,397.718628 451.399750,392.161163 448.352570,391.819855 
	C446.415131,392.893097 448.229950,394.502197 447.820099,395.807343 
	C446.417145,396.753540 444.942413,396.215027 443.166443,396.218536 
	C443.412018,392.013824 444.336639,387.949585 443.006378,383.588989 
z"/>
<path fill="#000000" opacity="1.000000" stroke="none" 
	d="
M161.643890,392.234741 
	C161.687744,388.713226 161.949509,385.565796 160.680649,382.492798 
	C163.221893,381.239624 165.717651,381.560913 168.101013,381.973541 
	C170.121338,382.323303 172.705002,383.828674 171.899902,385.746979 
	C170.150497,389.915253 172.612686,392.513611 174.817398,395.552185 
	C170.035797,397.572845 169.240829,392.308685 166.313690,391.740509 
	C164.304260,393.026367 166.247162,394.474945 165.979736,395.808258 
	C164.404877,396.772858 162.817245,396.229797 160.937805,396.100891 
	C161.202515,394.766174 161.414597,393.696899 161.643890,392.234741 
z"/>
<path fill="#000000" opacity="1.000000" stroke="none" 
	d="
M683.964233,384.842041 
	C685.670959,386.405640 686.739563,388.177277 688.828918,388.881378 
	C690.870667,386.623749 688.447876,384.563751 688.551880,382.446045 
	C689.918274,381.295654 691.317261,381.728943 693.123108,382.110138 
	C691.863586,386.717468 692.657104,391.318573 692.023499,396.161621 
	C687.544495,395.364136 686.356384,390.774048 682.725586,389.461884 
	C681.374084,391.748169 682.537842,393.855103 683.313293,395.811798 
	C681.588501,396.960602 680.171875,396.522369 678.801270,396.116119 
	C678.801270,391.503296 678.801270,386.966187 678.801270,382.655212 
	C681.674561,381.305817 682.449463,383.440887 683.964233,384.842041 
z"/>
<path fill="#000000" opacity="1.000000" stroke="none" 
	d="
M517.089478,382.091980 
	C521.390076,382.698517 522.661865,386.869537 526.202209,388.695251 
	C527.604370,386.689392 526.457153,384.666290 526.086914,382.741699 
	C527.653748,381.298737 529.104187,381.540680 531.013184,382.777130 
	C527.843628,386.704620 530.401855,391.548706 529.263672,396.194641 
	C524.781494,395.133606 523.369934,390.962128 519.952332,389.043884 
	C518.805969,391.477905 519.496033,393.596802 520.579224,395.458923 
	C519.176575,396.975159 517.930176,396.130432 516.732910,396.092987 
	C516.732910,391.313721 516.732910,386.769226 517.089478,382.091980 
z"/>
<path fill="#000000" opacity="1.000000" stroke="none" 
	d="
M253.394943,381.915405 
	C258.918549,384.819336 260.421722,387.736023 258.892700,391.861450 
	C257.339142,396.053040 252.608963,397.553131 245.686783,395.875244 
	C245.710495,391.417694 246.314377,386.860565 245.308487,382.356506 
	C248.023727,381.362488 250.510025,381.728851 253.394943,381.915405 
M255.320206,391.551147 
	C255.624466,388.401550 256.180328,384.921265 251.575745,384.716461 
	C249.961105,384.644684 249.505661,386.555878 249.446732,388.126190 
	C249.372375,390.106995 249.194519,392.185211 250.998383,393.546844 
	C252.866364,394.956909 253.953918,393.470520 255.320206,391.551147 
z"/>
<path fill="#000000" opacity="1.000000" stroke="none" 
	d="
M395.296814,393.510010 
	C394.791504,396.956909 393.270691,395.887634 391.903290,394.705139 
	C390.055054,393.106903 388.315552,391.382965 386.403442,389.595154 
	C384.272217,391.870392 385.788513,393.826813 386.246002,395.794464 
	C384.886505,397.007050 383.411469,396.148102 381.352966,396.466248 
	C383.293304,391.528442 382.627594,386.887085 381.840729,382.139923 
	C387.402679,381.787659 388.218323,387.484558 391.964020,388.995575 
	C393.490906,386.531921 392.047607,384.431946 391.439209,382.391876 
	C393.156311,381.501404 394.543488,381.470490 396.309052,382.494690 
	C395.055054,385.879425 395.430603,389.498840 395.296814,393.510010 
z"/>
<path fill="#000000" opacity="1.000000" stroke="none" 
	d="
M132.345535,389.006378 
	C131.533905,394.822235 129.035263,397.236542 124.461906,396.846497 
	C120.227364,396.485321 117.858360,394.181030 117.680565,389.831390 
	C117.498581,385.379120 119.922150,382.231293 123.920395,381.720215 
	C128.359329,381.152802 131.217194,383.481995 132.345535,389.006378 
M123.767662,393.218170 
	C125.763382,394.770416 127.179398,393.818054 128.128448,392.005096 
	C129.336487,389.697388 128.733322,387.522186 127.006493,385.703888 
	C125.934082,384.574615 124.507729,383.941132 123.000122,384.684906 
	C120.695801,385.821777 121.196251,388.001373 121.572418,389.877625 
	C121.780235,390.914062 122.672287,391.813385 123.767662,393.218170 
z"/>
<path fill="#000000" opacity="1.000000" stroke="none" 
	d="
M417.119171,391.965637 
	C413.281494,396.906372 412.556000,397.114349 403.800598,395.947784 
	C404.679291,391.353821 405.539856,386.685547 403.282562,382.194275 
	C414.437378,380.602112 418.104248,383.129456 417.119171,391.965637 
M413.749268,389.550537 
	C413.385559,387.077545 413.023224,383.738708 409.689484,384.977203 
	C407.091431,385.942383 408.610748,389.415497 408.390411,391.776581 
	C408.278076,392.980499 408.691467,394.312531 410.184052,394.225067 
	C412.500549,394.089325 413.711609,392.656952 413.749268,389.550537 
z"/>
<path fill="#000000" opacity="1.000000" stroke="none" 
	d="
M315.764648,395.466858 
	C312.051544,391.094849 311.706512,387.391235 314.631775,384.194489 
	C317.487885,381.073181 320.989716,380.798584 324.503174,382.844238 
	C327.693756,384.701904 328.740906,389.497131 326.895020,393.004517 
	C324.334656,397.869568 320.176453,396.751984 315.764648,395.466858 
M317.637451,385.207886 
	C315.748962,387.485626 315.901825,389.823700 317.664124,392.019714 
	C318.682495,393.288696 319.891907,394.759430 321.820251,394.058441 
	C323.585144,393.416870 324.510345,391.615509 324.208130,390.041077 
	C323.617676,386.965149 322.921509,383.429199 317.637451,385.207886 
z"/>
<path fill="#000000" opacity="1.000000" stroke="none" 
	d="
M488.206970,381.711426 
	C492.797882,381.700500 495.681519,383.385437 496.266632,387.804932 
	C496.739075,391.373230 495.897034,394.688995 492.342926,396.088074 
	C488.917328,397.436584 485.450806,396.949951 482.977509,393.692017 
	C479.682343,389.351562 481.802521,384.109924 488.206970,381.711426 
M490.192078,394.072693 
	C493.222931,391.185974 493.521942,387.449036 490.829681,385.314423 
	C489.210876,384.030914 487.449402,383.851379 485.987457,385.499329 
	C484.186005,387.529968 485.568481,391.845673 488.583191,393.885284 
	C488.840729,394.059601 489.209320,394.069672 490.192078,394.072693 
z"/>
<path fill="#000000" opacity="1.000000" stroke="none" 
	d="
M660.357178,382.928345 
	C662.876892,381.067200 665.586609,381.889893 668.193176,381.757904 
	C669.313721,381.701141 670.727234,381.752747 670.501587,383.522095 
	C670.339478,384.792480 669.433716,384.920013 668.283508,384.786652 
	C666.835388,384.618713 665.238586,384.449585 664.820129,386.436310 
	C665.739136,388.465302 667.652039,386.783813 669.007629,387.788330 
	C670.229126,391.874054 666.297546,390.556976 664.284302,391.332153 
	C665.682617,397.023468 669.283936,392.020996 671.301575,393.314575 
	C670.488647,397.066467 669.231140,397.383087 660.305542,395.960144 
	C660.924133,391.782532 661.312988,387.555695 660.357178,382.928345 
z"/>
<path fill="#000000" opacity="1.000000" stroke="none" 
	d="
M612.232544,394.253448 
	C613.905396,393.937561 615.080017,392.631958 616.722412,393.302826 
	C615.321594,397.045502 612.111328,397.715057 605.320251,395.662598 
	C607.223816,391.309113 606.945129,386.828033 605.559021,382.349457 
	C608.369385,381.290527 611.034363,381.795746 613.651917,381.787079 
	C614.856140,381.783081 616.120483,382.105225 615.822815,383.747192 
	C615.586731,385.049194 614.544556,385.044189 613.497131,384.747559 
	C612.004761,384.325043 610.928040,384.675964 610.466736,386.149902 
	C611.253357,388.633850 613.631653,386.668121 614.842407,388.080597 
	C614.918701,389.970154 613.953064,390.614105 611.993835,391.091644 
	C609.440491,391.714050 609.936035,393.139648 612.232544,394.253448 
z"/>
<path fill="#000000" opacity="1.000000" stroke="none" 
	d="
M428.917236,396.639648 
	C427.277832,396.430847 426.000366,396.203064 424.432465,395.923492 
	C426.229218,391.379883 425.933563,387.022614 424.564331,382.189850 
	C428.325653,382.073700 431.957062,380.296082 435.158447,383.425842 
	C433.656708,386.331848 430.216095,382.849762 429.574310,386.222717 
	C430.178589,388.723846 432.606842,386.616791 433.695251,387.845276 
	C434.550262,391.395325 430.758514,390.703674 429.402008,392.484192 
	C430.978058,396.540955 433.692657,391.944733 436.019531,393.695770 
	C435.315247,397.941345 431.483093,395.758148 428.917236,396.639648 
z"/>
<path fill="#000000" opacity="1.000000" stroke="none" 
	d="
M373.385803,384.120605 
	C371.840973,385.582581 368.920471,383.189850 368.471100,386.369446 
	C369.136780,388.615997 371.809692,386.644775 372.658600,388.799438 
	C372.505829,389.165466 372.282349,389.762360 372.011749,390.337036 
	C371.321777,391.801971 367.338562,390.561707 368.890228,393.479065 
	C370.065857,395.689392 372.064545,392.900543 373.757843,393.127808 
	C374.059845,393.168365 374.338287,393.384216 374.626495,393.518616 
	C373.364746,396.874237 371.796600,397.218384 363.649841,395.804260 
	C364.826416,391.355408 365.323425,386.861877 362.598297,381.541321 
	C366.813507,382.593109 370.680511,379.564117 373.385803,384.120605 
z"/>
<path fill="#000000" opacity="1.000000" stroke="none" 
	d="
M569.500854,389.793152 
	C568.883423,386.796173 566.731262,385.066284 565.063538,382.775787 
	C568.882629,380.145996 570.773804,382.524597 572.481628,385.519135 
	C574.424438,383.887482 575.069153,379.837128 578.564880,382.600372 
	C574.297974,388.972717 574.297974,388.972717 578.954407,395.820343 
	C575.228333,397.423920 573.118713,395.854218 572.161987,392.404327 
	C569.630676,392.506042 570.559265,394.853668 569.490601,395.690765 
	C568.332275,396.598206 567.040955,396.503906 565.700500,395.750824 
	C565.873169,393.149353 568.697449,392.312439 569.500854,389.793152 
z"/>
<path fill="#000000" opacity="1.000000" stroke="none" 
	d="
M266.908020,390.690125 
	C266.778442,387.645020 266.636993,385.024567 266.491180,382.323181 
	C269.053253,381.247406 271.733795,381.827942 274.352661,381.779022 
	C275.530762,381.757019 276.856903,381.967987 276.552399,383.674286 
	C276.321747,384.967133 275.348145,384.996582 274.248596,384.721741 
	C272.527679,384.291565 270.891693,384.145081 270.686584,386.502258 
	C271.584686,388.592957 274.014038,386.759277 274.994202,388.342590 
	C275.191010,390.098114 274.477020,390.981323 272.771179,390.858002 
	C271.393372,390.758392 270.298340,391.098114 270.551849,392.671631 
	C270.831879,394.409729 272.123016,394.496490 273.618591,394.124054 
	C274.815094,393.826080 275.864685,392.506958 277.885986,393.876709 
	C274.721771,397.923645 270.775360,396.470032 267.145142,396.215088 
	C266.061829,394.344604 267.124695,392.710175 266.908020,390.690125 
z"/>
<path fill="#000000" opacity="1.000000" stroke="none" 
	d="
M511.162598,144.985718 
	C509.443390,147.488449 507.720978,150.123184 504.788879,149.296295 
	C502.032013,148.518829 501.811005,145.366928 502.081818,142.991013 
	C502.444061,139.813446 503.753632,136.171021 507.683624,136.821487 
	C511.691833,137.484940 512.173035,141.054016 511.162598,144.985718 
z"/>
<path fill="#000000" opacity="1.000000" stroke="none" 
	d="
M547.678589,392.194763 
	C547.696350,388.684631 547.696350,385.569244 547.696350,382.374329 
	C554.488892,380.790009 556.479980,381.286011 557.014343,384.930542 
	C555.438843,386.118011 552.298828,382.342743 551.600342,386.446442 
	C552.442505,388.619049 554.818726,386.820251 555.944031,388.273529 
	C556.238403,389.895874 555.503723,390.813721 553.863342,390.844971 
	C552.219971,390.876343 551.133179,391.413696 551.747375,393.191864 
	C552.223083,394.569122 553.478760,394.498230 554.694336,394.089569 
	C555.741455,393.737518 556.802734,393.427460 558.016052,393.049530 
	C557.174988,397.107056 555.443298,397.499969 547.015625,395.805847 
	C547.230103,394.736786 547.445496,393.663147 547.678589,392.194763 
z"/>
<path fill="#000000" opacity="1.000000" stroke="none" 
	d="
M726.802979,396.377136 
	C724.243225,396.270020 722.051880,396.764862 719.798279,395.728241 
	C720.853821,391.216766 721.453064,386.685486 719.199646,382.310303 
	C726.437866,380.976715 728.503418,381.374054 729.722778,384.271515 
	C728.560974,386.314087 725.109131,382.815460 724.559937,386.357971 
	C725.202881,388.688690 727.773315,386.537476 728.731445,388.223358 
	C728.796570,389.541840 728.111572,390.458771 726.834534,390.656769 
	C725.341309,390.888367 724.015381,391.246094 724.609253,393.068573 
	C725.187805,394.844055 726.555664,394.434692 727.886963,393.814880 
	C728.737427,393.418915 729.597778,392.668518 730.777405,393.585876 
	C731.003784,396.201416 729.070251,396.227325 726.802979,396.377136 
z"/>
<path fill="#000000" opacity="1.000000" stroke="none" 
	d="
M149.775330,385.547119 
	C148.607651,381.919617 149.942413,381.247284 153.357834,382.272400 
	C152.352661,385.056610 152.291672,387.957764 152.314529,390.871887 
	C152.337997,393.864258 151.263763,396.074127 147.878036,396.350616 
	C144.441666,396.631287 141.349838,395.990662 140.535721,392.095184 
	C139.894928,389.029083 139.828766,385.842926 139.504440,382.681580 
	C140.932755,381.141724 142.487411,381.864258 144.131912,382.108032 
	C144.131912,385.130127 144.091980,387.918518 144.146362,390.705017 
	C144.180923,392.476624 144.667267,394.222717 146.772476,394.287231 
	C148.824539,394.350159 149.560776,392.717438 149.707764,390.926849 
	C149.843277,389.276459 149.795776,387.611023 149.775330,385.547119 
z"/>
<path fill="#000000" opacity="1.000000" stroke="none" 
	d="
M627.402832,146.997070 
	C626.494629,144.354034 626.379089,142.082230 627.611572,139.926666 
	C628.726440,137.976913 630.152344,136.258743 632.706299,136.891418 
	C635.124756,137.490540 636.000610,139.527206 636.234924,141.766846 
	C636.594666,145.204651 634.546509,147.336670 631.869873,148.938049 
	C629.903320,150.114639 628.398926,149.517181 627.402832,146.997070 
z"/>
<path fill="#000000" opacity="1.000000" stroke="none" 
	d="
M193.264252,395.198120 
	C189.648315,390.737457 189.695129,386.263977 193.049088,383.516510 
	C196.263214,380.883698 200.457901,381.138336 202.879532,384.344910 
	C199.871872,386.061646 194.019287,381.822906 193.556473,388.300781 
	C193.340210,391.327576 195.452728,393.351593 198.081314,394.473206 
	C200.018936,393.046692 197.718735,391.295258 199.334824,389.977478 
	C200.526108,389.511261 201.952957,389.463531 203.359299,390.191956 
	C203.204758,396.817352 201.226120,397.873413 193.264252,395.198120 
z"/>
<path fill="#000000" opacity="1.000000" stroke="none" 
	d="
M218.936142,394.414978 
	C223.987274,391.103271 220.752716,386.498169 221.300980,382.441833 
	C222.435547,381.523315 223.619690,381.537720 225.137009,382.527710 
	C224.293732,385.154480 224.308838,387.944061 224.329590,390.735077 
	C224.354492,394.086823 222.813004,396.072693 219.364349,396.356964 
	C215.764359,396.653656 213.052811,395.509247 212.399078,391.609924 
	C211.905899,388.668304 211.680634,385.681732 211.320465,382.580109 
	C212.852936,381.229767 214.507645,381.526581 216.271179,382.426636 
	C215.764709,386.712646 213.501053,391.318481 218.936142,394.414978 
z"/>
<path fill="#000000" opacity="1.000000" stroke="none" 
	d="
M102.226013,393.296509 
	C103.026169,388.496857 98.197151,386.423035 97.681145,382.489563 
	C102.329132,379.457581 102.777565,384.394897 104.667206,386.402313 
	C107.046730,385.322662 105.790871,379.183807 110.810059,382.637085 
	C109.128174,386.764069 103.998993,390.046631 107.322533,395.465912 
	C102.403297,396.874054 102.317284,396.840546 102.226013,393.296509 
z"/>
<path fill="#000000" opacity="1.000000" stroke="none" 
	d="
M293.309082,382.729126 
	C297.714417,381.160126 301.898621,381.553772 306.825134,382.584961 
	C300.414734,385.761597 299.551758,390.292328 302.805420,395.620270 
	C300.634125,397.417786 298.693481,396.362793 296.385254,396.151062 
	C296.591431,394.361023 297.865356,392.912750 297.743195,391.099457 
	C297.532898,387.977570 298.760895,384.072449 293.316284,384.469513 
	C293.281128,384.472076 293.179901,383.568604 293.309082,382.729126 
z"/>
<path fill="#000000" opacity="1.000000" stroke="none" 
	d="
M703.432007,388.897827 
	C704.586914,393.557983 708.249451,393.651245 712.073364,393.935181 
	C710.650818,397.623322 707.917542,396.548004 705.707031,396.273193 
	C702.573608,395.883667 700.633545,393.849152 700.005798,390.802673 
	C699.389771,387.813629 700.303894,385.202789 702.714050,383.252441 
	C703.895874,382.296112 705.306702,381.615021 706.843750,381.751434 
	C708.640198,381.910858 711.702820,380.769287 711.723511,383.453705 
	C711.746277,386.415344 709.060608,384.601196 707.457764,384.534363 
	C704.696594,384.419281 703.650085,386.080841 703.432007,388.897827 
z"/>
<path fill="#000000" opacity="1.000000" stroke="none" 
	d="
M597.112671,395.677185 
	C593.000671,397.752045 589.700317,396.772003 587.223755,393.514343 
	C585.251953,390.920624 585.178894,387.989563 587.025391,385.170166 
	C589.116821,381.976776 592.213318,381.326569 595.724792,381.817841 
	C596.770630,381.964172 597.520020,382.535309 597.848877,383.512665 
	C597.509277,385.174469 596.353943,385.320984 595.182007,384.958252 
	C592.081238,383.998566 589.700623,384.601807 589.459961,388.159729 
	C589.233948,391.500824 591.433533,393.092682 594.583130,393.739197 
	C595.565308,393.940796 597.975830,392.413025 597.112671,395.677185 
z"/>
<path fill="#000000" opacity="1.000000" stroke="none" 
	d="
M347.192749,385.454163 
	C345.969849,384.091400 344.321838,385.529236 342.677979,383.376923 
	C347.232239,380.350342 351.868103,382.141998 356.291504,381.881805 
	C356.987762,386.619385 353.090057,383.716919 351.723022,385.835327 
	C351.085205,388.782806 350.758545,392.286804 352.913757,395.691681 
	C350.806671,396.835602 348.768127,396.527863 346.551239,395.931732 
	C348.068329,392.559784 347.962158,389.167816 347.192749,385.454163 
z"/>
<path fill="#000000" opacity="1.000000" stroke="none" 
	d="
M470.513336,394.279968 
	C472.248962,393.973755 473.183746,392.268738 474.891876,392.846191 
	C474.369690,396.962952 471.751587,397.658234 463.827881,395.706451 
	C464.990814,391.240082 465.220184,386.733307 463.504669,382.326752 
	C465.292786,381.393616 466.912781,381.640808 468.702301,382.042419 
	C469.654846,386.062073 465.872833,390.741699 470.513336,394.279968 
z"/>
<path fill="#000000" opacity="1.000000" stroke="none" 
	d="
M629.483582,396.663452 
	C627.504272,396.529510 625.874634,396.357025 623.888611,396.146790 
	C624.898621,391.447052 625.197876,386.944122 623.695435,382.566864 
	C625.322205,381.257416 626.934998,381.707611 628.614563,382.007965 
	C629.646423,383.804413 628.319702,385.484253 628.278748,387.220184 
	C628.107666,394.463623 628.136780,394.581299 634.817139,393.158752 
	C634.483887,396.272797 634.483887,396.272797 629.483582,396.663452 
z"/>
<path fill="#000000" opacity="1.000000" stroke="none" 
	d="
M646.148438,381.912781 
	C648.036072,383.793274 646.352051,385.478882 646.276428,387.197327 
	C645.960327,394.370331 646.340515,394.821930 652.928772,393.334259 
	C652.411255,396.898376 650.135864,397.468689 642.015808,395.925964 
	C643.024597,391.469360 642.937439,386.941864 642.230713,382.635620 
	C643.463135,381.481415 644.650269,381.775452 646.148438,381.912781 
z"/>
<path fill="#000000" opacity="1.000000" stroke="none" 
	d="
M504.093506,393.638733 
	C505.062195,389.643494 504.885315,386.061157 503.369476,382.722870 
	C505.117920,381.204346 506.666748,381.843384 508.414734,382.157318 
	C508.414734,386.733337 508.414734,391.125153 508.414734,395.874542 
	C506.400391,395.965576 504.072815,398.027588 504.093506,393.638733 
z"/>
<path fill="#000000" opacity="1.000000" stroke="none" 
	d="
M233.365204,396.065887 
	C233.458267,391.384644 234.622910,386.843140 232.428421,382.509033 
	C234.364914,381.410217 235.915924,381.503113 237.727875,382.438202 
	C237.280594,386.803436 236.996872,391.234985 237.586029,395.539948 
	C236.313171,396.794403 234.967010,396.341309 233.365204,396.065887 
z"/>
</svg>