<svg version="1.1" id="Layer_1" xmlns="http://www.w3.org/2000/svg" xmlns:xlink="http://www.w3.org/1999/xlink" x="0px" y="0px"
	 width="100%" viewBox="0 0 534 148" enable-background="new 0 0 534 148" xml:space="preserve">
<path fill="#FFFFFF" opacity="1.000000" stroke="none" 
	d="
M383.000000,149.000000 
	C255.333328,149.000000 128.166672,149.000000 1.000000,149.000000 
	C1.000000,99.666664 1.000000,50.333332 1.000000,1.000000 
	C179.000000,1.000000 357.000000,1.000000 535.000000,1.000000 
	C535.000000,50.333332 535.000000,99.666664 535.000000,149.000000 
	C484.500000,149.000000 434.000000,149.000000 383.000000,149.000000 
M398.837067,74.473106 
	C396.956299,69.723305 394.911011,65.030457 393.241974,60.207397 
	C391.633972,55.560829 388.015717,50.304398 395.723602,46.877441 
	C388.507538,46.877441 381.291443,46.877441 375.027832,46.877441 
	C378.002594,51.306149 381.595062,55.279568 383.618805,59.934929 
	C388.889557,72.059906 393.690186,84.404778 398.206635,96.833344 
	C399.710663,100.972176 401.806519,101.830269 404.572906,100.955406 
	C408.637268,90.777985 412.454926,81.218277 416.743439,70.479507 
	C420.482422,79.873413 424.072845,87.989586 426.896301,96.364334 
	C428.336853,100.637299 430.297333,101.991806 433.508118,100.873573 
	C438.190247,88.628517 442.567505,77.031242 447.063354,65.480118 
	C449.682739,58.750092 450.406403,50.730904 459.204224,48.034012 
	C455.272644,45.293079 443.189606,45.462173 440.711884,47.920086 
	C446.640106,51.733253 446.659882,51.740475 444.075195,58.818188 
	C442.425476,63.335732 440.744934,67.842888 439.008209,72.327614 
	C437.140717,77.150085 435.191376,81.940872 432.890259,87.718292 
	C429.462585,78.678253 426.616730,70.776802 423.465820,62.998943 
	C421.299255,57.650990 418.657623,52.481960 421.838409,46.132015 
	C416.848907,46.132015 412.541351,46.051014 408.240662,46.186756 
	C407.110138,46.222439 406.000793,46.929222 404.881744,47.327827 
	C405.524506,48.152596 406.064758,49.089844 406.826508,49.784077 
	C412.223022,54.702236 414.569366,63.980473 411.897675,70.635590 
	C409.559448,76.460159 407.063934,82.221596 404.427094,88.513969 
	C402.526764,83.753532 400.820404,79.478935 398.837067,74.473106 
M17.317345,46.143192 
	C16.466055,46.478394 15.614767,46.813591 14.763478,47.148792 
	C15.243406,47.875854 15.576200,49.040287 16.227058,49.259243 
	C20.564941,50.718533 21.195580,54.031113 21.154963,57.980717 
	C21.057320,67.475166 21.063179,76.971840 21.148306,86.466530 
	C21.192093,91.350243 21.718620,96.324768 15.375290,97.998535 
	C15.032756,98.088913 14.923851,99.064720 14.411983,100.390228 
	C23.170607,100.479607 31.384232,101.070183 39.552670,99.223412 
	C38.716774,98.020477 37.878445,97.553864 36.990749,97.423546 
	C32.681950,96.791031 30.575342,94.339561 30.587908,90.003159 
	C30.601267,85.393158 30.590912,80.783089 30.590912,76.254395 
	C36.899170,75.295631 40.942131,77.916527 44.327530,82.308983 
	C48.479652,87.696236 52.656361,93.089920 57.198162,98.143120 
	C60.585045,101.911354 68.297096,102.273964 70.867439,100.099495 
	C62.950459,91.327568 55.015713,82.535965 47.253929,73.936005 
	C47.204266,73.956619 48.076847,73.550171 48.979252,73.227013 
	C54.705070,71.176544 58.400856,66.533195 58.536934,61.186932 
	C58.695015,54.976414 55.939568,50.477875 49.772499,48.176197 
	C46.572868,46.982033 43.019924,46.334831 39.599487,46.215149 
	C32.459793,45.965343 25.302107,46.229885 17.317345,46.143192 
M113.089310,56.146088 
	C113.384109,52.298683 115.398438,50.895168 119.297180,50.725464 
	C125.701645,50.446686 131.534897,50.867439 134.746124,58.175983 
	C135.086990,57.876045 135.427872,57.576107 135.768738,57.276165 
	C136.606323,53.782158 137.443893,50.288151 138.301453,46.710800 
	C123.966324,46.710800 110.533264,46.710800 97.100204,46.710800 
	C96.602615,47.109741 96.105034,47.508682 95.607445,47.907619 
	C105.739525,50.082497 103.736458,57.260887 103.784584,63.554752 
	C103.838081,70.551430 103.494072,77.565788 103.884972,84.540970 
	C104.250267,91.059265 103.495804,96.462860 95.956169,98.197929 
	C95.812691,98.230942 95.785126,98.767586 95.616539,99.390480 
	C96.168663,99.744438 96.789291,100.488098 97.414375,100.491867 
	C109.381546,100.564026 121.351067,100.673859 133.316025,100.498169 
	C139.026382,100.414322 143.096832,93.299797 140.968079,87.320190 
	C140.271606,87.830948 139.504364,88.195152 139.009460,88.787071 
	C133.679184,95.162117 126.594193,96.534927 118.809067,95.976456 
	C115.322044,95.726311 113.245453,94.016617 113.162102,90.382713 
	C113.070457,86.387497 113.144020,82.387604 113.004440,78.394676 
	C112.900597,75.423904 114.510948,74.352852 117.037323,74.933640 
	C121.074104,75.861664 125.023460,77.169922 129.587265,78.483658 
	C130.945770,75.197083 132.568512,71.271240 133.847443,68.177200 
	C128.152740,69.137505 122.714439,70.100357 117.259354,70.956161 
	C114.302658,71.420006 112.941498,70.031906 113.012718,67.033035 
	C113.091805,63.702976 113.030518,60.369591 113.089310,56.146088 
M312.824127,100.035744 
	C321.134888,100.214119 329.447510,100.333969 337.755615,100.596176 
	C341.759094,100.722527 344.511932,98.843124 345.986084,95.396202 
	C346.986877,93.056038 347.248199,90.399635 347.840210,87.884659 
	C337.474609,94.865227 334.470886,96.193840 327.210632,96.114220 
	C320.090729,96.036125 318.918304,94.844742 318.883240,87.601860 
	C318.867920,84.438568 318.577576,81.229034 319.041199,78.134758 
	C319.222961,76.921593 321.292236,74.926483 322.218750,75.073364 
	C326.300049,75.720421 330.278015,77.019142 335.148163,78.307945 
	C336.463531,75.442184 338.222198,71.610657 339.799652,68.173935 
	C333.632080,69.165253 328.054291,70.240707 322.425354,70.809624 
	C321.350189,70.918282 319.147095,69.110832 319.052979,68.046860 
	C318.688019,63.921848 318.867798,59.736176 319.035797,55.580807 
	C319.150299,52.748535 320.539703,51.016571 323.670410,50.848713 
	C330.215973,50.497765 336.790558,49.876099 340.234161,57.822388 
	C340.629669,57.654243 341.025208,57.486103 341.420715,57.317963 
	C342.261719,53.855194 343.102692,50.392429 344.139435,46.123638 
	C330.345947,46.123638 317.435883,46.106171 304.526337,46.182686 
	C303.966034,46.186005 303.053284,46.993599 302.962830,47.536209 
	C302.886261,47.995739 303.673004,48.961590 304.233154,49.107883 
	C309.058075,50.367920 309.447357,54.062851 309.432922,58.099205 
	C309.398346,67.755737 309.224091,77.418167 309.501343,87.066864 
	C309.650421,92.254211 308.979279,96.374405 302.966644,97.497314 
	C302.047394,97.668976 301.209839,98.277893 300.334503,98.684578 
	C300.638794,99.135078 300.943054,99.585587 301.247345,100.036087 
	C304.797485,100.036087 308.347626,100.036087 312.824127,100.035744 
M224.824081,49.153145 
	C227.253677,48.434628 227.714340,46.616924 225.160675,46.347866 
	C219.698807,45.772392 214.134247,46.171642 207.438156,46.171642 
	C208.881989,47.932392 209.263947,48.883614 209.816101,48.995586 
	C214.723038,49.990635 214.249649,53.153114 212.920700,56.574039 
	C210.884842,61.814682 208.786194,67.032661 206.611191,72.217033 
	C204.484726,77.285667 202.229187,82.300156 199.672394,88.158516 
	C195.518112,78.106148 191.909439,69.064110 188.039383,60.135353 
	C185.992706,55.413372 183.550812,50.897984 190.480484,47.969109 
	C186.574112,45.288456 171.052292,45.467110 169.511154,46.955105 
	C172.266327,51.121990 175.436646,54.778973 177.338135,59.006641 
	C182.961685,71.509735 188.151489,84.210556 193.360077,96.895988 
	C194.868576,100.569855 196.930466,102.224510 199.796936,100.939079 
	C205.169159,88.088753 209.971390,75.943626 215.344299,64.056427 
	C217.668732,58.913792 221.170929,54.303505 224.824081,49.153145 
M493.685638,49.087494 
	C484.281647,58.229744 485.022736,65.919174 496.073486,73.268341 
	C500.876648,76.462616 505.779297,79.507362 510.580933,82.703873 
	C513.675110,84.763710 515.461121,88.034477 513.691467,91.220978 
	C512.469238,93.421822 509.366974,95.333130 506.792847,95.865677 
	C501.988770,96.859558 497.292023,95.655685 493.320557,92.349602 
	C492.010742,91.259285 490.401855,90.528290 488.895355,89.612076 
	C485.344208,96.551636 485.903687,98.668800 492.568817,100.075310 
	C497.353882,101.085075 502.584625,101.488541 507.361298,100.671127 
	C514.113464,99.515656 519.238892,95.257812 520.942627,88.275307 
	C522.585144,81.543427 519.247925,76.964645 513.648193,73.436836 
	C507.928345,69.833366 502.192169,66.157555 496.969452,61.893307 
	C492.561768,58.294464 494.363983,52.393925 499.869476,50.898945 
	C504.590637,49.616966 508.618896,51.169220 512.466431,53.807014 
	C513.977051,54.842693 515.755554,57.746670 517.460388,54.113297 
	C518.729004,51.409809 519.973450,48.648903 515.625244,46.943077 
	C508.135620,44.004848 501.113434,44.275536 493.685638,49.087494 
M268.884094,78.491806 
	C268.884094,72.665649 268.837524,66.839012 268.897766,61.013474 
	C268.953156,55.656067 267.625214,49.569653 276.123840,48.579212 
	C271.969025,45.158466 255.433151,45.331093 252.635773,48.422489 
	C256.912354,49.596245 259.535034,51.915985 259.464508,56.715115 
	C259.300568,67.865608 259.477631,79.020767 259.373322,90.172699 
	C259.343170,93.393463 258.829865,96.513596 254.646225,97.250526 
	C253.869217,97.387383 253.322128,98.829407 252.552139,99.819199 
	C260.753204,99.819199 268.139893,99.819199 275.526581,99.819199 
	C275.852264,99.425438 276.177948,99.031670 276.503632,98.637909 
	C266.722168,96.396126 269.100037,89.153946 268.889740,82.982559 
	C268.850098,81.818680 268.884094,80.652290 268.884094,78.491806 
z"/>
<path fill="#0E0E0E" opacity="1.000000" stroke="none" 
	d="
M398.975525,74.838730 
	C400.820404,79.478935 402.526764,83.753532 404.427094,88.513969 
	C407.063934,82.221596 409.559448,76.460159 411.897675,70.635590 
	C414.569366,63.980473 412.223022,54.702236 406.826508,49.784077 
	C406.064758,49.089844 405.524506,48.152596 404.881744,47.327827 
	C406.000793,46.929222 407.110138,46.222439 408.240662,46.186756 
	C412.541351,46.051014 416.848907,46.132015 421.838409,46.132015 
	C418.657623,52.481960 421.299255,57.650990 423.465820,62.998943 
	C426.616730,70.776802 429.462585,78.678253 432.890259,87.718292 
	C435.191376,81.940872 437.140717,77.150085 439.008209,72.327614 
	C440.744934,67.842888 442.425476,63.335732 444.075195,58.818188 
	C446.659882,51.740475 446.640106,51.733253 440.711884,47.920086 
	C443.189606,45.462173 455.272644,45.293079 459.204224,48.034012 
	C450.406403,50.730904 449.682739,58.750092 447.063354,65.480118 
	C442.567505,77.031242 438.190247,88.628517 433.508118,100.873573 
	C430.297333,101.991806 428.336853,100.637299 426.896301,96.364334 
	C424.072845,87.989586 420.482422,79.873413 416.743439,70.479507 
	C412.454926,81.218277 408.637268,90.777985 404.572906,100.955406 
	C401.806519,101.830269 399.710663,100.972176 398.206635,96.833344 
	C393.690186,84.404778 388.889557,72.059906 383.618805,59.934929 
	C381.595062,55.279568 378.002594,51.306149 375.027832,46.877441 
	C381.291443,46.877441 388.507538,46.877441 395.723602,46.877441 
	C388.015717,50.304398 391.633972,55.560829 393.241974,60.207397 
	C394.911011,65.030457 396.956299,69.723305 398.975525,74.838730 
z"/>
<path fill="#111111" opacity="1.000000" stroke="none" 
	d="
M17.734579,46.213158 
	C25.302107,46.229885 32.459793,45.965343 39.599487,46.215149 
	C43.019924,46.334831 46.572868,46.982033 49.772499,48.176197 
	C55.939568,50.477875 58.695015,54.976414 58.536934,61.186932 
	C58.400856,66.533195 54.705070,71.176544 48.979252,73.227013 
	C48.076847,73.550171 47.204266,73.956619 47.253929,73.936005 
	C55.015713,82.535965 62.950459,91.327568 70.867439,100.099495 
	C68.297096,102.273964 60.585045,101.911354 57.198162,98.143120 
	C52.656361,93.089920 48.479652,87.696236 44.327530,82.308983 
	C40.942131,77.916527 36.899170,75.295631 30.590912,76.254395 
	C30.590912,80.783089 30.601267,85.393158 30.587908,90.003159 
	C30.575342,94.339561 32.681950,96.791031 36.990749,97.423546 
	C37.878445,97.553864 38.716774,98.020477 39.552670,99.223412 
	C31.384232,101.070183 23.170607,100.479607 14.411983,100.390228 
	C14.923851,99.064720 15.032756,98.088913 15.375290,97.998535 
	C21.718620,96.324768 21.192093,91.350243 21.148306,86.466530 
	C21.063179,76.971840 21.057320,67.475166 21.154963,57.980717 
	C21.195580,54.031113 20.564941,50.718533 16.227058,49.259243 
	C15.576200,49.040287 15.243406,47.875854 14.763478,47.148792 
	C15.614767,46.813591 16.466055,46.478394 17.734579,46.213158 
M30.565804,63.529247 
	C30.565804,66.293121 30.565804,69.056999 30.565804,71.970291 
	C33.606449,71.970291 36.087540,72.143044 38.535191,71.930557 
	C42.386456,71.596207 46.350819,70.989792 47.848267,66.676636 
	C49.469749,62.006222 48.947689,57.387402 45.488258,53.699890 
	C42.455013,50.466656 38.370197,49.294674 34.100914,50.632267 
	C29.939816,51.935959 30.700701,55.796993 30.573133,59.050934 
	C30.527538,60.213966 30.565779,61.380287 30.565804,63.529247 
z"/>
<path fill="#0D0D0D" opacity="1.000000" stroke="none" 
	d="
M113.059830,56.591873 
	C113.030518,60.369591 113.091805,63.702976 113.012718,67.033035 
	C112.941498,70.031906 114.302658,71.420006 117.259354,70.956161 
	C122.714439,70.100357 128.152740,69.137505 133.847443,68.177200 
	C132.568512,71.271240 130.945770,75.197083 129.587265,78.483658 
	C125.023460,77.169922 121.074104,75.861664 117.037323,74.933640 
	C114.510948,74.352852 112.900597,75.423904 113.004440,78.394676 
	C113.144020,82.387604 113.070457,86.387497 113.162102,90.382713 
	C113.245453,94.016617 115.322044,95.726311 118.809067,95.976456 
	C126.594193,96.534927 133.679184,95.162117 139.009460,88.787071 
	C139.504364,88.195152 140.271606,87.830948 140.968079,87.320190 
	C143.096832,93.299797 139.026382,100.414322 133.316025,100.498169 
	C121.351067,100.673859 109.381546,100.564026 97.414375,100.491867 
	C96.789291,100.488098 96.168663,99.744438 95.616539,99.390480 
	C95.785126,98.767586 95.812691,98.230942 95.956169,98.197929 
	C103.495804,96.462860 104.250267,91.059265 103.884972,84.540970 
	C103.494072,77.565788 103.838081,70.551430 103.784584,63.554752 
	C103.736458,57.260887 105.739525,50.082497 95.607445,47.907619 
	C96.105034,47.508682 96.602615,47.109741 97.100204,46.710800 
	C110.533264,46.710800 123.966324,46.710800 138.301453,46.710800 
	C137.443893,50.288151 136.606323,53.782158 135.768738,57.276165 
	C135.427872,57.576107 135.086990,57.876045 134.746124,58.175983 
	C131.534897,50.867439 125.701645,50.446686 119.297180,50.725464 
	C115.398438,50.895168 113.384109,52.298683 113.059830,56.591873 
z"/>
<path fill="#131313" opacity="1.000000" stroke="none" 
	d="
M312.360962,100.035919 
	C308.347626,100.036087 304.797485,100.036087 301.247345,100.036087 
	C300.943054,99.585587 300.638794,99.135078 300.334503,98.684578 
	C301.209839,98.277893 302.047394,97.668976 302.966644,97.497314 
	C308.979279,96.374405 309.650421,92.254211 309.501343,87.066864 
	C309.224091,77.418167 309.398346,67.755737 309.432922,58.099205 
	C309.447357,54.062851 309.058075,50.367920 304.233154,49.107883 
	C303.673004,48.961590 302.886261,47.995739 302.962830,47.536209 
	C303.053284,46.993599 303.966034,46.186005 304.526337,46.182686 
	C317.435883,46.106171 330.345947,46.123638 344.139435,46.123638 
	C343.102692,50.392429 342.261719,53.855194 341.420715,57.317963 
	C341.025208,57.486103 340.629669,57.654243 340.234161,57.822388 
	C336.790558,49.876099 330.215973,50.497765 323.670410,50.848713 
	C320.539703,51.016571 319.150299,52.748535 319.035797,55.580807 
	C318.867798,59.736176 318.688019,63.921848 319.052979,68.046860 
	C319.147095,69.110832 321.350189,70.918282 322.425354,70.809624 
	C328.054291,70.240707 333.632080,69.165253 339.799652,68.173935 
	C338.222198,71.610657 336.463531,75.442184 335.148163,78.307945 
	C330.278015,77.019142 326.300049,75.720421 322.218750,75.073364 
	C321.292236,74.926483 319.222961,76.921593 319.041199,78.134758 
	C318.577576,81.229034 318.867920,84.438568 318.883240,87.601860 
	C318.918304,94.844742 320.090729,96.036125 327.210632,96.114220 
	C334.470886,96.193840 337.474609,94.865227 347.840210,87.884659 
	C347.248199,90.399635 346.986877,93.056038 345.986084,95.396202 
	C344.511932,98.843124 341.759094,100.722527 337.755615,100.596176 
	C329.447510,100.333969 321.134888,100.214119 312.360962,100.035919 
z"/>
<path fill="#0F0F0F" opacity="1.000000" stroke="none" 
	d="
M224.481110,49.302277 
	C221.170929,54.303505 217.668732,58.913792 215.344299,64.056427 
	C209.971390,75.943626 205.169159,88.088753 199.796936,100.939079 
	C196.930466,102.224510 194.868576,100.569855 193.360077,96.895988 
	C188.151489,84.210556 182.961685,71.509735 177.338135,59.006641 
	C175.436646,54.778973 172.266327,51.121990 169.511154,46.955105 
	C171.052292,45.467110 186.574112,45.288456 190.480484,47.969109 
	C183.550812,50.897984 185.992706,55.413372 188.039383,60.135353 
	C191.909439,69.064110 195.518112,78.106148 199.672394,88.158516 
	C202.229187,82.300156 204.484726,77.285667 206.611191,72.217033 
	C208.786194,67.032661 210.884842,61.814682 212.920700,56.574039 
	C214.249649,53.153114 214.723038,49.990635 209.816101,48.995586 
	C209.263947,48.883614 208.881989,47.932392 207.438156,46.171642 
	C214.134247,46.171642 219.698807,45.772392 225.160675,46.347866 
	C227.714340,46.616924 227.253677,48.434628 224.481110,49.302277 
z"/>
<path fill="#101010" opacity="1.000000" stroke="none" 
	d="
M494.027588,48.946625 
	C501.113434,44.275536 508.135620,44.004848 515.625244,46.943077 
	C519.973450,48.648903 518.729004,51.409809 517.460388,54.113297 
	C515.755554,57.746670 513.977051,54.842693 512.466431,53.807014 
	C508.618896,51.169220 504.590637,49.616966 499.869476,50.898945 
	C494.363983,52.393925 492.561768,58.294464 496.969452,61.893307 
	C502.192169,66.157555 507.928345,69.833366 513.648193,73.436836 
	C519.247925,76.964645 522.585144,81.543427 520.942627,88.275307 
	C519.238892,95.257812 514.113464,99.515656 507.361298,100.671127 
	C502.584625,101.488541 497.353882,101.085075 492.568817,100.075310 
	C485.903687,98.668800 485.344208,96.551636 488.895355,89.612076 
	C490.401855,90.528290 492.010742,91.259285 493.320557,92.349602 
	C497.292023,95.655685 501.988770,96.859558 506.792847,95.865677 
	C509.366974,95.333130 512.469238,93.421822 513.691467,91.220978 
	C515.461121,88.034477 513.675110,84.763710 510.580933,82.703873 
	C505.779297,79.507362 500.876648,76.462616 496.073486,73.268341 
	C485.022736,65.919174 484.281647,58.229744 494.027588,48.946625 
z"/>
<path fill="#141414" opacity="1.000000" stroke="none" 
	d="
M268.884094,78.989433 
	C268.884094,80.652290 268.850098,81.818680 268.889740,82.982559 
	C269.100037,89.153946 266.722168,96.396126 276.503632,98.637909 
	C276.177948,99.031670 275.852264,99.425438 275.526581,99.819199 
	C268.139893,99.819199 260.753204,99.819199 252.552139,99.819199 
	C253.322128,98.829407 253.869217,97.387383 254.646225,97.250526 
	C258.829865,96.513596 259.343170,93.393463 259.373322,90.172699 
	C259.477631,79.020767 259.300568,67.865608 259.464508,56.715115 
	C259.535034,51.915985 256.912354,49.596245 252.635773,48.422489 
	C255.433151,45.331093 271.969025,45.158466 276.123840,48.579212 
	C267.625214,49.569653 268.953156,55.656067 268.897766,61.013474 
	C268.837524,66.839012 268.884094,72.665649 268.884094,78.989433 
z"/>
<path fill="#FDFDFD" opacity="1.000000" stroke="none" 
	d="
M30.565781,63.037178 
	C30.565779,61.380287 30.527538,60.213966 30.573133,59.050934 
	C30.700701,55.796993 29.939816,51.935959 34.100914,50.632267 
	C38.370197,49.294674 42.455013,50.466656 45.488258,53.699890 
	C48.947689,57.387402 49.469749,62.006222 47.848267,66.676636 
	C46.350819,70.989792 42.386456,71.596207 38.535191,71.930557 
	C36.087540,72.143044 33.606449,71.970291 30.565804,71.970291 
	C30.565804,69.056999 30.565804,66.293121 30.565781,63.037178 
z"/>
</svg>